<?xml version="1.0" encoding="UTF-8"?>
<svg xmlns="http://www.w3.org/2000/svg" id="Outline" viewBox="0 0 64 64" width="512" height="512"><path d="M61,52.381H59V13a5.006,5.006,0,0,0-5-5H10a5.006,5.006,0,0,0-5,5V33a1,1,0,0,0,2,0V13a3,3,0,0,1,3-3H54a3,3,0,0,1,3,3V52.381H39a1,1,0,0,0-1,1V55H26V53.381a1,1,0,0,0-1-1H7V37a1,1,0,0,0-2,0V52.381H3a1,1,0,0,0-1,1v1.905A6.869,6.869,0,0,0,9,62h8a1,1,0,0,0,0-2H9a4.868,4.868,0,0,1-5-4.714v-.905H24V56a1,1,0,0,0,1,1H39a1,1,0,0,0,1-1V54.381H60v.905A4.868,4.868,0,0,1,55,60H21a1,1,0,0,0,0,2H55a6.869,6.869,0,0,0,7-6.714V53.381A1,1,0,0,0,61,52.381Z"/><path d="M52,57.19a1,1,0,1,0-1,.953A.977.977,0,0,0,52,57.19Z"/><path d="M56,57.19a1,1,0,1,0-1,.953A.977.977,0,0,0,56,57.19Z"/><path d="M8,57.19a1,1,0,1,0,1-.952A.978.978,0,0,0,8,57.19Z"/><path d="M12,57.19a1,1,0,1,0,1-.952A.978.978,0,0,0,12,57.19Z"/><path d="M54,20a1,1,0,0,0,1-1V15a3,3,0,0,0-3-3H12a3,3,0,0,0-3,3V47a3,3,0,0,0,3,3H52a3,3,0,0,0,3-3V23a1,1,0,0,0-2,0v5H51.732l.232-.134A1,1,0,0,0,52.33,26.5l-6-10.393a1,1,0,0,0-1.366-.366l-1.987,1.147A.989.989,0,0,0,42,16H36a1,1,0,0,0-1,1v1H30a1,1,0,0,0-1,1H27V17a1,1,0,0,0-1-1H14a1,1,0,0,0-1,1v8a1,1,0,0,0,2,0V24h2v4H11V15a1,1,0,0,1,1-1H52a1,1,0,0,1,1,1v4A1,1,0,0,0,54,20ZM21,42H17V40h4ZM11,42h4v2H11Zm4-2H11V38h4Zm-4,7V46h4v2H12A1,1,0,0,1,11,47Zm6-3h4v4H17Zm6-3h2v7H23Zm4,1h6v2H27Zm6-2H27V38h6Zm-6,8V46h6v2Zm26-1a1,1,0,0,1-1,1H41V34H53ZM31,28V24h4v4Zm10-4H37V22h4Zm-4,2h4v2H37Zm6-3.66L46.268,28H43Zm2.1-4.366,5,8.66-1.732,1-5-8.66ZM37,18h4v2H37Zm-2,2v2H31V20Zm-6,1v7H27V21ZM19,22h6v2H19Zm6-2H19V18h6ZM15,22V18h2v4Zm4,4h6v2H19Zm34,4v2H28a1,1,0,0,0,0,2H39V48H35V37a1,1,0,0,0-1-1H26a1,1,0,0,0-1,1v2H23a1,1,0,0,0-1-1H17V37a1,1,0,0,0-1-1H11V34H24a1,1,0,0,0,0-2H11V30Z"/><path d="M43.474,44.851a1,1,0,0,0,.973.044l6-3a1,1,0,0,0,0-1.79l-6-3A1,1,0,0,0,43,38v6A1,1,0,0,0,43.474,44.851ZM45,39.618,47.764,41,45,42.382Z"/></svg>
