<svg id="_x33_0" enable-background="new 0 0 64 64" height="512" viewBox="0 0 64 64" width="512" xmlns="http://www.w3.org/2000/svg" xmlns:xlink="http://www.w3.org/1999/xlink"><linearGradient id="SVGID_1_" gradientUnits="userSpaceOnUse" x1="31.883" x2="31.883" y1="63" y2="1"><stop offset="0" stop-color="#9f2fff"/><stop offset="1" stop-color="#0bb1d3"/></linearGradient><path d="m13 35h-6v-2h6zm28-2h-26v2h26zm0 4h-34v2h34zm5 26h-45v-54h6v-4h9.557c1.028-2.351 3.374-4 6.1-4h2.687c2.726 0 5.072 1.649 6.1 4h9.556v4h6v32.051c2.86.259 5.4 1.62 7.207 3.651l7.028-8.345 1.53 1.288-7.339 8.715c.992 1.651 1.574 3.577 1.574 5.64 0 6.065-4.935 11-11 11zm0-20c-4.962 0-9 4.038-9 9s4.038 9 9 9 9-4.038 9-9c0-1.44-.348-2.797-.952-4.005l-7.985 9.482-5.77-5.771 1.414-1.414 4.23 4.229 6.972-8.28c-1.652-1.978-4.135-3.241-6.909-3.241zm-16.022-30.564c-.137 1.877-1.134 3.517-2.605 4.521l.38 1.14 2.095.299c2.937.42 5.152 2.974 5.152 5.94v4.664h4v-22h-7.033c.021.216.033.435.033.657 0 1.778-.692 3.45-1.95 4.707zm-5.195 10.761-.783-.783-.783.783.401.803h.764zm3.348-3.025-.894-.128-1.668 1.112 1.232 1.232zm-.131-8.174v-1.358c0-.475-.338-.888-.804-.981l-1.431-.286c-.689-.138-1.296-.478-1.765-.952-.469.474-1.076.814-1.765.952l-1.431.286c-.466.093-.804.506-.804.981v1.358c0 2.206 1.794 4.001 4 4.002 2.206-.001 4-1.796 4-4.002zm-5.543 5.793-.267.801 1.81 1.206 1.81-1.207-.267-.801c-.493.133-1.008.21-1.541.21-.001 0-.003 0-.004 0-.533 0-1.048-.077-1.541-.209zm-2.588 2.381 1.329 2.216 1.232-1.232-1.668-1.112zm-4.869 4.164v4.664h6.18l.772-3.86-.226-.452-.925.925-3.044-5.075c-1.611.531-2.757 2.057-2.757 3.798zm8.22 4.664h1.561l-.6-3h-.36zm9.78 0v-4.664c0-1.742-1.146-3.267-2.757-3.798l-3.044 5.075-.925-.925-.226.452.772 3.86zm-15-21.343c0 .58.115 1.141.317 1.667.402-.816 1.158-1.439 2.095-1.626l1.431-.286c.67-.135 1.157-.728 1.157-1.412v-1h2v1c0 .684.487 1.277 1.157 1.412l1.431.286c.937.187 1.692.81 2.095 1.626.202-.526.317-1.087.317-1.667 0-2.568-2.089-4.657-4.657-4.657h-2.687c-2.567 0-4.656 2.089-4.656 4.657zm-9 21.343h4v-4.664c0-2.966 2.215-5.52 5.151-5.939l2.095-.299.38-1.14c-1.47-1.004-2.468-2.645-2.605-4.521l-.072-.072c-1.257-1.259-1.949-2.93-1.949-4.708 0-.222.012-.441.033-.657h-7.033zm30.695 32c-2.041-1.434-3.57-3.542-4.269-6h-4.426v-2h4.051c-.03-.33-.051-.662-.051-1s.021-.67.051-1h-4.051v-2h4.426c.198-.698.463-1.366.788-2h-5.214v-2h6.521c.63-.761 1.364-1.431 2.174-2h-8.695v-2h10v1.214c1.221-.626 2.57-1.034 4-1.164v-30.05h-4v20h-34v-20h-4v50zm-32.695-20h6v6h-6zm2 4h2v-2h-2zm12-4h-6v2h6zm0 4h-6v2h6zm-14 4h6v6h-6zm2 4h2v-2h-2zm12-4h-6v2h6zm-6 6h6v-2h-6zm8-14h6v6h-6zm2 4h2v-2h-2zm-2 4h6v6h-6zm2 4h2v-2h-2zm-18 6h6v-2h-6zm8 0h14v-2h-14z" fill="url(#SVGID_1_)"/></svg>