<svg id="Layer_1" enable-background="new 0 0 512.002 512.002" height="512" viewBox="0 0 512.002 512.002" width="512" xmlns="http://www.w3.org/2000/svg"><g><path d="m363.212 368.602h-214.422c-4.143 0-7.5 3.358-7.5 7.5s3.357 7.5 7.5 7.5h214.422c4.143 0 7.5-3.358 7.5-7.5s-3.358-7.5-7.5-7.5z"/><path d="m370.712 408.589c0-4.142-3.357-7.5-7.5-7.5h-214.422c-4.143 0-7.5 3.358-7.5 7.5s3.357 7.5 7.5 7.5h214.422c4.142 0 7.5-3.358 7.5-7.5z"/><path d="m180.156 433.577c-4.143 0-7.5 3.358-7.5 7.5s3.357 7.5 7.5 7.5h151.689c4.143 0 7.5-3.358 7.5-7.5s-3.357-7.5-7.5-7.5z"/><path d="m371.31 179.46 45.062-16.445c4.08-1.489 6.716-5.258 6.716-9.601s-2.637-8.11-6.716-9.599l-148.61-54.236c-7.583-2.768-15.937-2.769-23.521 0l-148.609 54.235c-4.08 1.488-6.717 5.256-6.717 9.6s2.636 8.112 6.716 9.601l45.062 16.445v88.649c0 5.847 2.579 11.396 6.531 15.126 3.915 3.692 8.255 7.168 12.952 10.417-.001.001-.003.003-.005.004-5.045 4.952-7.938 11.819-7.938 18.842v5.047c0 2.226.698 4.343 1.915 6.1l-7.289 16.802c-1.648 3.8.096 8.217 3.896 9.865 3.796 1.648 8.215-.094 9.865-3.896l6.868-15.833c.981.314 1.972.585 2.972.808v16.884c0 4.142 3.357 7.5 7.5 7.5s7.5-3.358 7.5-7.5v-16.884c1-.224 1.991-.494 2.971-.808l6.869 15.833c1.651 3.805 6.071 5.543 9.865 3.896 3.801-1.648 5.545-6.065 3.896-9.865l-7.289-16.802c1.217-1.757 1.916-3.875 1.916-6.101v-3.871c16.444 4.673 34.277 7.124 52.312 7.124 38.293 0 81.203-11.555 108.779-37.565 3.963-3.74 6.529-9.333 6.529-15.125.002-10.027.002-78.485.002-88.647zm-121.927-75.79c4.268-1.558 8.969-1.558 13.236 0l136.305 49.745c-2.535.925-133.963 48.89-136.304 49.744-4.27 1.558-8.97 1.557-13.237 0l-52.387-19.119 43.341-21.407 3.905 1.425c3.792 1.384 7.775 2.076 11.76 2.076s7.97-.692 11.761-2.076l6.917-2.524c4.218-1.538 7.051-5.587 7.051-10.076v-5.525c0-13.923-11.322-25.463-25.239-25.724-6.793-.124-13.313 2.485-18.279 7.36-5.045 4.952-7.938 11.819-7.938 18.842v4.464c-54.71 27.022-51.218 25.227-52.563 26.128l-64.632-23.588zm-4.111 44.797v-2.057c0-3.021 1.256-5.987 3.445-8.137 2.068-2.029 4.699-3.106 7.491-3.068 5.801.109 10.521 4.921 10.521 10.727v2.534l-4.11 1.5c-4.268 1.558-8.968 1.557-13.235 0zm-74.811 98.413c-4.729-3.133-9.071-6.534-12.945-10.188-1.159-1.093-1.823-2.629-1.823-4.213v-47.543l14.779 5.394c-.017.965-.011-6.491-.011 56.55zm-3.229 67.676c0-2.134-.393-6.427 3.445-10.195 2.194-2.153 4.927-3.113 7.49-3.067 7.7.146 10.521 5.589 10.521 13.261-9.011 3.289-10.624 3.954-21.456.001zm3.229-32.049c-4.295-2.845-8.236-5.898-11.789-9.129-1.119-1.018-2.98-2.389-2.98-5.269v-13.335c4.551 3.469 9.507 6.668 14.769 9.607zm27.772 13.696c-3.201-4.115-7.616-7.23-12.772-8.798v-15.761c15.808 6.591 33.637 10.992 52.36 12.694 4.133.371 7.774-2.665 8.148-6.79.376-4.125-2.664-7.773-6.789-8.148-19.59-1.781-38.026-6.697-53.72-14.108v-59.493l58.78 21.452c3.7 1.35 7.727 2.076 11.76 2.076 4.129-.001 8.161-.763 11.76-2.076h.001l88.548-32.315v47.543c0 1.584-.664 3.12-1.823 4.213-18.852 17.782-48.617 29.704-81.665 32.709-4.125.375-7.165 4.023-6.789 8.148.374 4.125 4.019 7.167 8.148 6.79 31.805-2.892 61.074-13.514 82.129-29.564v13.335c0 1.648-.734 3.186-1.823 4.213-24.915 23.501-64.132 33.477-98.485 33.477-20.248-.002-40.165-3.315-57.768-9.597z"/><path d="m89.461 512.002h333.081c16.499 0 29.923-13.423 29.923-29.923v-204.579c0-4.142-3.357-7.5-7.5-7.5s-7.5 3.358-7.5 7.5v204.579c0 8.229-6.694 14.923-14.923 14.923h-333.081c-8.229 0-14.924-6.694-14.924-14.923v-420.764h362.928v181.185c0 4.142 3.357 7.5 7.5 7.5s7.5-3.358 7.5-7.5c0-7.174 0-202.365 0-212.577 0-16.498-13.421-29.923-29.923-29.923-9 0-330.101 0-333.081 0-16.5 0-29.924 13.423-29.924 29.923v452.155c0 16.501 13.424 29.924 29.924 29.924zm348.004-482.079v16.392h-303.014v-31.315h288.091c8.226 0 14.923 6.692 14.923 14.923zm-362.928 0c0-6.686 4.419-12.359 10.491-14.251 1.401-.437 2.89-.672 4.433-.672h29.99v31.315h-44.914z"/></g></svg>