<svg id="Capa_1" enable-background="new 0 0 512 512" height="512" viewBox="0 0 512 512" width="512" xmlns="http://www.w3.org/2000/svg"><g><path d="m511.999 73.766c0-22.405-18.228-40.633-40.633-40.633h-42.199v-9.066c0-13.271-10.796-24.067-24.067-24.067h-298.199c-13.271 0-24.066 10.796-24.066 24.067v9.066h-42.2c-22.405 0-40.633 18.228-40.633 40.633v298.203c0 22.405 18.228 40.632 40.633 40.632h34.983c4.143 0 7.5-3.358 7.5-7.5s-3.357-7.5-7.5-7.5h-34.984c-14.134 0-25.633-11.499-25.633-25.632v-9.07h481.997v9.07c0 14.134-11.499 25.632-25.633 25.632h-365.747c-4.143 0-7.5 3.358-7.5 7.5s3.357 7.5 7.5 7.5h84.899l.001 51.267h-42.483c-8.547 0-15.5 6.953-15.5 15.5v17.132c0 8.547 6.953 15.5 15.5 15.5h150.949c4.143 0 7.5-3.358 7.5-7.5s-3.357-7.5-7.5-7.5h-150.949c-.275 0-.5-.224-.5-.5v-17.132c0-.276.225-.5.5-.5h215.933c.275 0 .5.224.5.5v17.132c0 .276-.225.5-.5.5h-34.983c-4.143 0-7.5 3.358-7.5 7.5s3.357 7.5 7.5 7.5h34.983c8.547 0 15.5-6.953 15.5-15.5v-17.132c0-8.547-6.953-15.5-15.5-15.5h-42.483v-51.267h149.882c22.405 0 40.633-18.228 40.633-40.632v-298.203zm-246.931 390.102h-18.134v-17.354c0-.432.352-.783.783-.783h16.567c.432 0 .783.351.783.783v17.354zm41.416 0h-26.416v-17.354c0-8.703-7.08-15.783-15.783-15.783h-16.567c-8.703 0-15.783 7.08-15.783 15.783v17.354h-26.416l-.001-51.267h100.967v51.267zm157.384-115.97h-34.701v-266.63h25.635c4.999 0 9.066 4.067 9.066 9.066zm-381.033 0h-34.702v-257.564c0-4.999 4.067-9.066 9.066-9.066h25.635v266.63zm15-84.398h67.833v84.398h-67.833zm49.699-140.033c0-14.134 11.499-25.633 25.634-25.633 14.134 0 25.633 11.499 25.633 25.633s-11.5 25.633-25.634 25.633-25.633-11.499-25.633-25.633zm25.633 40.633c5.596 0 11.027 1.081 16.077 3.166l-10.414 8.332c-3.334 2.668-7.993 2.668-11.327 0l-10.394-8.315c4.954-2.047 10.375-3.183 16.058-3.183zm-29.257 11.832 14.224 11.378c4.426 3.541 9.73 5.312 15.034 5.312s10.608-1.77 15.034-5.312l14.753-11.803 15.454 10.333c4.032 2.688 8.99 3.378 13.601 1.888 4.611-1.487 8.231-4.942 9.933-9.479l.984-2.625 17.21 5.749-12.211 32.564c-.977 2.606-3.058 4.591-5.708 5.446-2.605.843-5.529.437-7.811-1.086l-4.039-2.692v-9.305c0-4.142-3.357-7.5-7.5-7.5s-7.5 3.358-7.5 7.5v13.3c0 .035-.001.07 0 .106v28.794h-84.4v-42.2c-.001-11.917 4.972-22.687 12.942-30.368zm105.771-18.319c.031-.078.061-.157.088-.236l6.027-16.072c.851-2.267 2.533-4.068 4.739-5.07 1.719-.781 3.596-.997 5.413-.653l-.658 2.633c-1.004 4.018 1.439 8.09 5.457 9.095.611.153 1.223.226 1.825.226.085 0 .168-.018.253-.021-.019.053-.031.106-.051.159l-7.368 19.648-17.211-5.749zm36.514-23.083c-.857-1.887-1.956-3.611-3.225-5.183l13.44-53.762c1.004-4.018-1.439-8.09-5.457-9.095-4.02-1.005-8.09 1.438-9.096 5.457l-12.266 49.067c-5.101-1.164-10.415-.639-15.261 1.564-2.821 1.282-5.31 3.067-7.396 5.235v-78.896c0-.432.352-.783.783-.783h132.533c.432 0 .783.352.783.783v99.4c0 .432-.352.784-.783.784h-92.345c.965-4.89.393-9.944-1.71-14.571zm-105.528 128.97h233.499v84.398h-233.499zm-73.766-248.5h298.199c4.999 0 9.066 4.067 9.066 9.067v224.433h-183.798v-15.463c2.864 1.167 5.931 1.784 9.069 1.784 2.513 0 4.998-.391 7.386-1.162 7.031-2.268 12.553-7.536 15.147-14.455l20.664-55.105h97.616c8.703 0 15.783-7.081 15.783-15.784v-99.4c0-8.703-7.08-15.783-15.783-15.783h-132.533c-8.703 0-15.783 7.08-15.783 15.783v99.4c0 2.887.786 5.631 2.204 8.024l-6.241 16.643c-.033.087-.133.354-.492.47-.362.115-.599-.043-.667-.088l-19.914-13.315c-2.604-1.898-5.336-3.553-8.171-4.969 9.229-7.455 15.147-18.854 15.147-31.615 0-22.405-18.227-40.633-40.633-40.633s-40.634 18.228-40.634 40.633c0 12.772 5.928 24.179 15.172 31.634-2.727 1.362-5.328 2.936-7.786 4.699-.353.212-.693.451-1.012.724-13.918 10.443-22.94 27.075-22.94 45.776v42.2h-18.132v-224.431c0-5 4.067-9.067 9.066-9.067zm-91.899 58.766c0-14.134 11.499-25.633 25.633-25.633h42.2v18.135h-25.635c-13.271 0-24.066 10.796-24.066 24.066v257.564h-18.132zm463.866 274.132v-257.564c0-13.27-10.796-24.066-24.066-24.066h-25.635v-18.135h42.199c14.134 0 25.633 11.499 25.633 25.633v274.132z"/><path d="m388.534 298.2h-126.236c-3.16-9.608-12.212-16.566-22.864-16.566s-19.704 6.959-22.863 16.566h-10.271c-4.143 0-7.5 3.358-7.5 7.5s3.357 7.5 7.5 7.5h10.27c3.16 9.608 12.212 16.567 22.863 16.567 10.652 0 19.704-6.959 22.864-16.567h126.236c4.143 0 7.5-3.358 7.5-7.5.001-4.142-3.357-7.5-7.499-7.5zm-149.1 16.567c-4.999 0-9.066-4.067-9.066-9.067 0-4.999 4.067-9.066 9.066-9.066s9.066 4.067 9.066 9.066c.001 4.999-4.067 9.067-9.066 9.067z"/><path d="m135.892 298.2h-8.283c-4.143 0-7.5 3.358-7.5 7.5s3.357 7.5 7.5 7.5h8.283c4.143 0 7.5-3.358 7.5-7.5s-3.357-7.5-7.5-7.5z"/></g></svg>