<svg xmlns="http://www.w3.org/2000/svg" xmlns:xlink="http://www.w3.org/1999/xlink" width="500" height="500" version="1.2" viewBox="0 0 375 375"><defs><clipPath id="clip1"><path d="M 60.429688 37.5 L 103 37.5 L 103 97.5 L 60.429688 97.5 Z M 60.429688 37.5"/></clipPath><clipPath id="clip2"><path d="M 60.429688 126.035156 L 154.929688 126.035156 L 154.929688 173.285156 L 60.429688 173.285156 Z M 60.429688 126.035156"/></clipPath><clipPath id="clip3"><path d="M 187.5 194.917969 L 282 194.917969 L 282 242.167969 L 187.5 242.167969 Z M 187.5 194.917969"/></clipPath><clipPath id="clip4"><path d="M 154 73 L 230 73 L 230 160 L 154 160 Z M 154 73"/></clipPath><clipPath id="clip5"><path d="M 148.539062 79.113281 L 228.535156 72.726562 L 234.921875 152.722656 L 154.925781 159.109375 Z M 148.539062 79.113281"/></clipPath><clipPath id="clip6"><path d="M 148.539062 79.113281 L 228.535156 72.726562 L 234.921875 152.722656 L 154.925781 159.109375 Z M 148.539062 79.113281"/></clipPath><clipPath id="clip7"><path d="M 148.539062 79.113281 L 228.828125 72.703125 L 235.238281 152.992188 L 154.949219 159.402344 Z M 148.539062 79.113281"/></clipPath><clipPath id="clip8"><path d="M 193 153 L 197 153 L 197 157 L 193 157 Z M 193 153"/></clipPath><clipPath id="clip9"><path d="M 148.539062 79.113281 L 228.535156 72.726562 L 234.921875 152.722656 L 154.925781 159.109375 Z M 148.539062 79.113281"/></clipPath><clipPath id="clip10"><path d="M 148.539062 79.113281 L 228.535156 72.726562 L 234.921875 152.722656 L 154.925781 159.109375 Z M 148.539062 79.113281"/></clipPath><clipPath id="clip11"><path d="M 148.539062 79.113281 L 228.828125 72.703125 L 235.238281 152.992188 L 154.949219 159.402344 Z M 148.539062 79.113281"/></clipPath><clipPath id="clip12"><path d="M 198 152 L 202 152 L 202 156 L 198 156 Z M 198 152"/></clipPath><clipPath id="clip13"><path d="M 148.539062 79.113281 L 228.535156 72.726562 L 234.921875 152.722656 L 154.925781 159.109375 Z M 148.539062 79.113281"/></clipPath><clipPath id="clip14"><path d="M 148.539062 79.113281 L 228.535156 72.726562 L 234.921875 152.722656 L 154.925781 159.109375 Z M 148.539062 79.113281"/></clipPath><clipPath id="clip15"><path d="M 148.539062 79.113281 L 228.828125 72.703125 L 235.238281 152.992188 L 154.949219 159.402344 Z M 148.539062 79.113281"/></clipPath></defs><g id="surface1"><path style="stroke:none;fill-rule:nonzero;fill:#231f20;fill-opacity:1" d="M 62.09375 337.753906 L 62.09375 348.515625 L 334.109375 348.515625 L 334.109375 93.160156 L 323.394531 82.398438 L 323.394531 337.753906 Z M 62.09375 337.753906"/><path style="stroke:none;fill-rule:nonzero;fill:#fff;fill-opacity:1" d="M 269.082031 26.820312 L 45.152344 27.070312 L 45.152344 335.25 L 321.898438 335.25 L 322.148438 79.394531 Z M 269.082031 26.820312"/><path style="stroke:none;fill-rule:nonzero;fill:#231f20;fill-opacity:1" d="M 323.394531 78.890625 L 323.144531 78.640625 L 296.488281 51.855469 L 283.28125 38.585938 L 269.332031 24.566406 L 43.90625 24.566406 L 43.90625 337.753906 L 59.601562 337.753906 L 59.601562 351.019531 L 336.597656 351.019531 L 336.597656 92.160156 Z M 270.078125 28.824219 L 294.742188 53.355469 L 319.160156 77.890625 L 270.078125 77.890625 Z M 46.398438 335.25 L 46.398438 27.070312 L 267.585938 27.070312 L 267.585938 79.394531 C 267.585938 80.144531 268.085938 80.644531 268.832031 80.644531 L 320.902344 80.644531 L 320.902344 335.25 Z M 334.109375 348.515625 L 62.09375 348.515625 L 62.09375 337.753906 L 323.394531 337.753906 L 323.394531 82.398438 L 334.109375 93.160156 Z M 334.109375 348.515625"/><path style="stroke:none;fill-rule:nonzero;fill:#231f20;fill-opacity:1" d="M 177.019531 158.820312 L 199.503906 158.820312 C 200 158.820312 200.480469 158.914062 200.9375 159.105469 C 201.398438 159.296875 201.800781 159.566406 202.152344 159.917969 C 202.503906 160.269531 202.777344 160.675781 202.964844 161.136719 C 203.15625 161.59375 203.25 162.074219 203.25 162.570312 C 203.25 163.066406 203.15625 163.546875 202.964844 164.003906 C 202.777344 164.464844 202.503906 164.871094 202.152344 165.222656 C 201.800781 165.574219 201.398438 165.84375 200.9375 166.035156 C 200.480469 166.226562 200 166.320312 199.503906 166.320312 L 177.019531 166.320312 C 176.523438 166.320312 176.046875 166.226562 175.585938 166.035156 C 175.128906 165.84375 174.722656 165.574219 174.371094 165.222656 C 174.019531 164.871094 173.75 164.464844 173.558594 164.003906 C 173.367188 163.546875 173.273438 163.066406 173.273438 162.570312 C 173.273438 162.074219 173.367188 161.59375 173.558594 161.136719 C 173.75 160.675781 174.019531 160.269531 174.371094 159.917969 C 174.722656 159.566406 175.128906 159.296875 175.585938 159.105469 C 176.046875 158.914062 176.523438 158.820312 177.019531 158.820312 Z M 214.492188 158.820312 L 236.976562 158.820312 C 237.472656 158.820312 237.949219 158.914062 238.410156 159.105469 C 238.867188 159.296875 239.273438 159.566406 239.625 159.917969 C 239.976562 160.269531 240.246094 160.675781 240.4375 161.136719 C 240.628906 161.59375 240.722656 162.074219 240.722656 162.570312 C 240.722656 163.066406 240.628906 163.546875 240.4375 164.003906 C 240.246094 164.464844 239.976562 164.871094 239.625 165.222656 C 239.273438 165.574219 238.867188 165.84375 238.410156 166.035156 C 237.949219 166.226562 237.472656 166.320312 236.976562 166.320312 L 214.492188 166.320312 C 213.996094 166.320312 213.519531 166.226562 213.058594 166.035156 C 212.597656 165.84375 212.195312 165.574219 211.84375 165.222656 C 211.492188 164.871094 211.222656 164.464844 211.03125 164.003906 C 210.839844 163.546875 210.746094 163.066406 210.746094 162.570312 C 210.746094 162.074219 210.839844 161.59375 211.03125 161.136719 C 211.222656 160.675781 211.492188 160.269531 211.84375 159.917969 C 212.195312 159.566406 212.597656 159.296875 213.058594 159.105469 C 213.519531 158.914062 213.996094 158.820312 214.492188 158.820312 Z M 251.964844 158.820312 L 274.449219 158.820312 C 274.945312 158.820312 275.421875 158.914062 275.882812 159.105469 C 276.339844 159.296875 276.746094 159.566406 277.097656 159.917969 C 277.449219 160.269531 277.71875 160.675781 277.910156 161.136719 C 278.101562 161.59375 278.195312 162.074219 278.195312 162.570312 C 278.195312 163.066406 278.101562 163.546875 277.910156 164.003906 C 277.71875 164.464844 277.449219 164.871094 277.097656 165.222656 C 276.746094 165.574219 276.339844 165.84375 275.882812 166.035156 C 275.421875 166.226562 274.945312 166.320312 274.449219 166.320312 L 251.964844 166.320312 C 251.46875 166.320312 250.988281 166.226562 250.53125 166.035156 C 250.070312 165.84375 249.667969 165.574219 249.316406 165.222656 C 248.964844 164.871094 248.691406 164.464844 248.503906 164.003906 C 248.3125 163.546875 248.21875 163.066406 248.21875 162.570312 C 248.21875 162.074219 248.3125 161.59375 248.503906 161.136719 C 248.691406 160.675781 248.964844 160.269531 249.316406 159.917969 C 249.667969 159.566406 250.070312 159.296875 250.53125 159.105469 C 250.988281 158.914062 251.46875 158.820312 251.964844 158.820312 Z M 251.964844 158.820312"/><path style="stroke:none;fill-rule:nonzero;fill:#231f20;fill-opacity:1" d="M 72.878906 234.527344 L 95.402344 234.527344 C 95.898438 234.527344 96.378906 234.621094 96.839844 234.8125 C 97.296875 235.003906 97.703125 235.273438 98.054688 235.625 C 98.40625 235.976562 98.679688 236.382812 98.871094 236.839844 C 99.058594 237.300781 99.15625 237.78125 99.15625 238.277344 C 99.15625 238.773438 99.058594 239.253906 98.871094 239.710938 C 98.679688 240.171875 98.40625 240.578125 98.054688 240.929688 C 97.703125 241.28125 97.296875 241.550781 96.839844 241.742188 C 96.378906 241.929688 95.898438 242.027344 95.402344 242.027344 L 72.878906 242.027344 C 72.382812 242.027344 71.902344 241.929688 71.441406 241.742188 C 70.984375 241.550781 70.578125 241.28125 70.222656 240.929688 C 69.871094 240.578125 69.601562 240.171875 69.410156 239.710938 C 69.21875 239.253906 69.125 238.773438 69.125 238.277344 C 69.125 237.78125 69.21875 237.300781 69.410156 236.839844 C 69.601562 236.382812 69.871094 235.976562 70.222656 235.625 C 70.578125 235.273438 70.984375 235.003906 71.441406 234.8125 C 71.902344 234.621094 72.382812 234.527344 72.878906 234.527344 Z M 110.417969 234.527344 L 132.941406 234.527344 C 133.4375 234.527344 133.917969 234.621094 134.375 234.8125 C 134.835938 235.003906 135.242188 235.273438 135.59375 235.625 C 135.945312 235.976562 136.21875 236.382812 136.40625 236.839844 C 136.597656 237.300781 136.695312 237.78125 136.695312 238.277344 C 136.695312 238.773438 136.597656 239.253906 136.40625 239.710938 C 136.21875 240.171875 135.945312 240.578125 135.59375 240.929688 C 135.242188 241.28125 134.835938 241.550781 134.375 241.742188 C 133.917969 241.929688 133.4375 242.027344 132.941406 242.027344 L 110.417969 242.027344 C 109.917969 242.027344 109.441406 241.929688 108.980469 241.742188 C 108.519531 241.550781 108.113281 241.28125 107.761719 240.929688 C 107.410156 240.578125 107.140625 240.171875 106.949219 239.710938 C 106.757812 239.253906 106.664062 238.773438 106.664062 238.277344 C 106.664062 237.78125 106.757812 237.300781 106.949219 236.839844 C 107.140625 236.382812 107.410156 235.976562 107.761719 235.625 C 108.113281 235.273438 108.519531 235.003906 108.980469 234.8125 C 109.441406 234.621094 109.917969 234.527344 110.417969 234.527344 Z M 147.953125 234.527344 L 169.625 234.527344 C 170.121094 234.527344 170.601562 234.621094 171.0625 234.8125 C 171.523438 235.003906 171.925781 235.273438 172.28125 235.625 C 172.632812 235.976562 172.902344 236.382812 173.09375 236.839844 C 173.285156 237.300781 173.378906 237.78125 173.378906 238.277344 C 173.378906 238.773438 173.285156 239.253906 173.09375 239.710938 C 172.902344 240.171875 172.632812 240.578125 172.28125 240.929688 C 171.925781 241.28125 171.523438 241.550781 171.0625 241.742188 C 170.601562 241.929688 170.121094 242.027344 169.625 242.027344 L 147.953125 242.027344 C 147.457031 242.027344 146.976562 241.929688 146.519531 241.742188 C 146.058594 241.550781 145.652344 241.28125 145.300781 240.929688 C 144.949219 240.578125 144.675781 240.171875 144.488281 239.710938 C 144.296875 239.253906 144.199219 238.773438 144.199219 238.277344 C 144.199219 237.78125 144.296875 237.300781 144.488281 236.839844 C 144.675781 236.382812 144.949219 235.976562 145.300781 235.625 C 145.652344 235.273438 146.058594 235.003906 146.519531 234.8125 C 146.976562 234.621094 147.457031 234.527344 147.953125 234.527344 Z M 147.953125 234.527344"/><g clip-path="url(#clip1)" clip-rule="nonzero"><path style="stroke:none;fill-rule:nonzero;fill:#231f20;fill-opacity:1" d="M 81.355469 74.578125 C 72.738281 74.578125 65.753906 67.46875 65.753906 58.699219 C 65.753906 49.929688 72.738281 42.820312 81.355469 42.820312 C 89.972656 42.820312 96.957031 49.929688 96.957031 58.699219 C 96.957031 67.46875 89.972656 74.578125 81.355469 74.578125 Z M 90.945312 97.164062 L 82.585938 79.476562 L 83.457031 78.1875 L 91.878906 95.769531 Z M 73.171875 97.164062 L 72.238281 95.769531 L 79.910156 79.859375 L 80.78125 78.230469 L 81.636719 79.355469 Z M 102.230469 91.539062 L 102.976562 91.578125 L 94.433594 73.863281 L 95.613281 74.234375 L 95.023438 71.6875 L 97.558594 72.113281 L 96.636719 69.671875 L 99.203125 69.746094 L 97.964844 67.457031 L 100.515625 67.171875 L 98.980469 65.074219 L 101.472656 64.4375 L 99.667969 62.574219 L 102.050781 61.59375 L 100.015625 60 L 102.242188 58.699219 L 100.015625 57.398438 L 102.050781 55.804688 L 99.667969 54.824219 L 101.472656 52.964844 L 98.984375 52.324219 L 100.515625 50.230469 L 97.964844 49.941406 L 99.203125 47.65625 L 96.636719 47.726562 L 97.558594 45.285156 L 95.023438 45.710938 L 95.613281 43.167969 L 93.160156 43.9375 L 93.402344 41.332031 L 91.074219 42.433594 L 90.96875 39.824219 L 88.808594 41.238281 L 88.351562 38.667969 L 86.40625 40.371094 L 85.605469 37.886719 L 83.90625 39.84375 L 82.78125 37.492188 L 81.355469 39.667969 L 79.929688 37.492188 L 78.808594 39.84375 L 77.105469 37.886719 L 76.308594 40.371094 L 74.359375 38.667969 L 73.902344 41.238281 L 71.746094 39.824219 L 71.640625 42.433594 L 69.308594 41.332031 L 69.554688 43.933594 L 67.097656 43.164062 L 67.6875 45.707031 L 65.15625 45.285156 L 66.074219 47.726562 L 63.507812 47.652344 L 64.746094 49.941406 L 62.191406 50.226562 L 63.730469 52.324219 L 61.238281 52.964844 L 63.042969 54.824219 L 60.660156 55.804688 L 62.695312 57.398438 L 60.46875 58.699219 L 62.695312 60 L 60.660156 61.59375 L 63.042969 62.570312 L 61.238281 64.433594 L 63.730469 65.074219 L 62.191406 67.167969 L 64.746094 67.453125 L 63.507812 69.746094 L 66.074219 69.671875 L 65.152344 72.113281 L 67.6875 71.6875 L 67.097656 74.230469 L 69.554688 73.460938 L 69.476562 74.296875 L 61.144531 91.578125 L 61.890625 91.539062 L 69.363281 76.039062 L 71.441406 75.054688 L 63.539062 91.449219 L 63.230469 91.464844 L 69.144531 91.136719 L 73.59375 97.796875 L 82.058594 80.234375 L 90.523438 97.796875 L 94.976562 91.136719 L 100.886719 91.464844 L 100.582031 91.449219 L 93.09375 75.917969 L 93.402344 76.066406 L 93.15625 73.464844 L 93.578125 73.597656 L 102.230469 91.539062"/></g><path style="stroke:none;fill-rule:nonzero;fill:#231f20;fill-opacity:1" d="M 81.355469 44.421875 C 73.609375 44.421875 67.324219 50.8125 67.324219 58.699219 C 67.324219 66.585938 73.609375 72.976562 81.355469 72.976562 C 89.105469 72.976562 95.386719 66.585938 95.386719 58.699219 C 95.386719 50.8125 89.105469 44.421875 81.355469 44.421875"/><g clip-path="url(#clip2)" clip-rule="nonzero"><path style="stroke:none;fill-rule:nonzero;fill:#000;fill-opacity:1" d="M 63.816406 126.035156 C 63.367188 126.035156 62.933594 126.121094 62.519531 126.292969 C 62.105469 126.464844 61.738281 126.707031 61.421875 127.027344 C 61.105469 127.34375 60.859375 127.710938 60.6875 128.125 C 60.515625 128.539062 60.429688 128.972656 60.429688 129.417969 L 60.429688 170.039062 C 60.429688 170.488281 60.515625 170.921875 60.6875 171.335938 C 60.859375 171.75 61.105469 172.117188 61.421875 172.433594 C 61.738281 172.75 62.105469 172.996094 62.519531 173.167969 C 62.933594 173.339844 63.367188 173.425781 63.816406 173.425781 L 151.828125 173.425781 C 152.277344 173.425781 152.707031 173.339844 153.121094 173.167969 C 153.539062 172.996094 153.902344 172.75 154.222656 172.433594 C 154.539062 172.117188 154.78125 171.75 154.953125 171.335938 C 155.125 170.921875 155.210938 170.488281 155.210938 170.039062 L 155.210938 129.417969 C 155.210938 128.972656 155.125 128.539062 154.953125 128.125 C 154.78125 127.710938 154.539062 127.34375 154.222656 127.027344 C 153.902344 126.707031 153.539062 126.464844 153.121094 126.292969 C 152.707031 126.121094 152.277344 126.035156 151.828125 126.035156 Z M 67.199219 132.804688 L 148.441406 132.804688 L 148.441406 166.65625 L 67.199219 166.65625 Z M 73.972656 153.113281 L 73.972656 159.886719 L 80.742188 159.886719 L 80.742188 153.113281 Z M 87.511719 153.113281 L 87.511719 159.886719 L 94.28125 159.886719 L 94.28125 153.113281 Z M 101.050781 153.113281 L 101.050781 159.886719 L 107.820312 159.886719 L 107.820312 153.113281 Z M 101.050781 153.113281"/></g><g clip-path="url(#clip3)" clip-rule="nonzero"><path style="stroke:none;fill-rule:nonzero;fill:#000;fill-opacity:1" d="M 190.886719 194.917969 C 190.4375 194.917969 190.003906 195.003906 189.589844 195.175781 C 189.175781 195.347656 188.808594 195.589844 188.492188 195.910156 C 188.175781 196.226562 187.929688 196.59375 187.757812 197.007812 C 187.585938 197.421875 187.5 197.851562 187.5 198.300781 L 187.5 238.921875 C 187.5 239.371094 187.585938 239.804688 187.757812 240.21875 C 187.929688 240.632812 188.175781 241 188.492188 241.316406 C 188.808594 241.632812 189.175781 241.878906 189.589844 242.050781 C 190.003906 242.222656 190.4375 242.308594 190.886719 242.308594 L 278.898438 242.308594 C 279.347656 242.308594 279.777344 242.222656 280.191406 242.050781 C 280.605469 241.878906 280.972656 241.632812 281.289062 241.316406 C 281.609375 241 281.851562 240.632812 282.023438 240.21875 C 282.195312 239.804688 282.28125 239.371094 282.28125 238.921875 L 282.28125 198.300781 C 282.28125 197.851562 282.195312 197.421875 282.023438 197.007812 C 281.851562 196.589844 281.609375 196.226562 281.289062 195.910156 C 280.972656 195.589844 280.605469 195.347656 280.191406 195.175781 C 279.777344 195.003906 279.347656 194.917969 278.898438 194.917969 Z M 194.269531 201.6875 L 275.511719 201.6875 L 275.511719 235.539062 L 194.269531 235.539062 Z M 201.039062 221.996094 L 201.039062 228.765625 L 207.808594 228.765625 L 207.808594 221.996094 Z M 214.582031 221.996094 L 214.582031 228.765625 L 221.351562 228.765625 L 221.351562 221.996094 Z M 228.121094 221.996094 L 228.121094 228.765625 L 234.890625 228.765625 L 234.890625 221.996094 Z M 228.121094 221.996094"/></g><g clip-path="url(#clip4)" clip-rule="nonzero"><g clip-path="url(#clip5)" clip-rule="nonzero"><g clip-path="url(#clip6)" clip-rule="nonzero"><g clip-path="url(#clip7)" clip-rule="nonzero"><path style="stroke:none;fill-rule:nonzero;fill:#000;fill-opacity:1" d="M 226.199219 88.230469 L 223.582031 91.433594 L 220.59375 88.890625 L 224.027344 84.859375 L 221.988281 83.121094 L 218.554688 87.152344 L 216.265625 85.203125 L 219.699219 81.171875 L 217.660156 79.433594 L 214.226562 83.464844 L 211.238281 80.917969 L 214.003906 77.804688 C 215.433594 76.128906 218.359375 75.894531 220.03125 77.324219 L 225.734375 82.183594 C 227.410156 83.609375 227.644531 86.535156 226.199219 88.230469 Z M 218.6875 97.222656 L 206.300781 86.667969 L 209.480469 82.9375 L 221.863281 93.492188 Z M 176.328125 146.929688 L 175.320312 143.9375 C 175.167969 143.46875 174.761719 143.121094 174.269531 143.046875 L 171.15625 142.527344 L 211.773438 94.855469 L 216.949219 99.261719 Z M 168.25 151.355469 L 160.855469 145.058594 L 162.390625 138.835938 L 165.824219 139.410156 L 167.332031 143.882812 C 167.484375 144.355469 167.890625 144.699219 168.378906 144.777344 L 173.039062 145.554688 L 174.148438 148.855469 Z M 158.253906 155.601562 L 160.136719 147.964844 L 165.492188 152.527344 Z M 204.5625 88.710938 L 209.734375 93.117188 L 169.113281 140.785156 L 168.105469 137.792969 C 167.953125 137.320312 167.546875 136.976562 167.058594 136.898438 L 163.945312 136.375 Z M 221.769531 75.28125 C 220.441406 74.148438 218.601562 73.585938 216.710938 73.738281 C 214.828125 73.886719 213.097656 74.734375 211.984375 76.042969 L 160.367188 136.441406 C 160.351562 136.457031 160.289062 136.5625 160.269531 136.597656 C 160.199219 136.703125 160.09375 136.96875 160.085938 136.988281 L 155.007812 157.5625 C 154.882812 158.054688 155.050781 158.570312 155.4375 158.902344 C 155.714844 159.136719 156.066406 159.246094 156.414062 159.21875 L 191.148438 156.445312 L 190.933594 153.773438 L 164.429688 155.890625 L 176.335938 150.835938 C 176.351562 150.832031 176.507812 150.722656 176.566406 150.683594 C 176.644531 150.625 176.824219 150.488281 176.832031 150.472656 L 228.257812 89.949219 C 229.390625 88.617188 229.953125 86.777344 229.800781 84.894531 C 229.652344 83.003906 228.804688 81.273438 227.472656 80.140625 L 221.769531 75.28125"/></g></g></g></g><g clip-path="url(#clip8)" clip-rule="nonzero"><g clip-path="url(#clip9)" clip-rule="nonzero"><g clip-path="url(#clip10)" clip-rule="nonzero"><g clip-path="url(#clip11)" clip-rule="nonzero"><path style="stroke:none;fill-rule:nonzero;fill:#000;fill-opacity:1" d="M 193.605469 153.558594 L 193.820312 156.230469 L 196.492188 156.019531 L 196.277344 153.347656 L 193.605469 153.558594"/></g></g></g></g><g clip-path="url(#clip12)" clip-rule="nonzero"><g clip-path="url(#clip13)" clip-rule="nonzero"><g clip-path="url(#clip14)" clip-rule="nonzero"><g clip-path="url(#clip15)" clip-rule="nonzero"><path style="stroke:none;fill-rule:nonzero;fill:#000;fill-opacity:1" d="M 198.949219 153.132812 L 199.164062 155.804688 L 201.835938 155.59375 L 201.621094 152.921875 L 198.949219 153.132812"/></g></g></g></g></g></svg>