<svg xmlns="http://www.w3.org/2000/svg" xmlns:xlink="http://www.w3.org/1999/xlink" width="500" height="500" version="1.2" viewBox="0 0 375 375"><defs><clipPath id="clip1"><path d="M 80.296875 141.390625 L 126.046875 141.390625 L 126.046875 187.140625 L 80.296875 187.140625 Z M 80.296875 141.390625"/></clipPath><clipPath id="clip2"><path d="M 80.296875 194.46875 L 126.046875 194.46875 L 126.046875 240.21875 L 80.296875 240.21875 Z M 80.296875 194.46875"/></clipPath><clipPath id="clip3"><path d="M 80.296875 246.722656 L 126.046875 246.722656 L 126.046875 292.472656 L 80.296875 292.472656 Z M 80.296875 246.722656"/></clipPath><clipPath id="clip4"><path d="M 60.429688 37.5 L 103 37.5 L 103 97.5 L 60.429688 97.5 Z M 60.429688 37.5"/></clipPath></defs><g id="surface1"><path style="stroke:none;fill-rule:nonzero;fill:#231f20;fill-opacity:1" d="M 62.09375 337.753906 L 62.09375 348.515625 L 334.109375 348.515625 L 334.109375 93.160156 L 323.394531 82.398438 L 323.394531 337.753906 Z M 62.09375 337.753906"/><path style="stroke:none;fill-rule:nonzero;fill:#fff;fill-opacity:1" d="M 269.082031 26.820312 L 45.152344 27.070312 L 45.152344 335.25 L 321.898438 335.25 L 322.148438 79.394531 Z M 269.082031 26.820312"/><path style="stroke:none;fill-rule:nonzero;fill:#231f20;fill-opacity:1" d="M 323.394531 78.890625 L 323.144531 78.640625 L 296.488281 51.855469 L 283.28125 38.585938 L 269.332031 24.566406 L 43.90625 24.566406 L 43.90625 337.753906 L 59.601562 337.753906 L 59.601562 351.019531 L 336.597656 351.019531 L 336.597656 92.160156 Z M 270.078125 28.824219 L 294.742188 53.355469 L 319.160156 77.890625 L 270.078125 77.890625 Z M 46.398438 335.25 L 46.398438 27.070312 L 267.585938 27.070312 L 267.585938 79.394531 C 267.585938 80.144531 268.085938 80.644531 268.832031 80.644531 L 320.902344 80.644531 L 320.902344 335.25 Z M 334.109375 348.515625 L 62.09375 348.515625 L 62.09375 337.753906 L 323.394531 337.753906 L 323.394531 82.398438 L 334.109375 93.160156 Z M 334.109375 348.515625"/><path style="stroke:none;fill-rule:nonzero;fill:#f4f5f5;fill-opacity:1" d="M 103.171875 142.863281 C 114.996094 142.863281 124.578125 152.441406 124.578125 164.265625 C 124.578125 176.085938 114.996094 185.664062 103.171875 185.664062 C 91.355469 185.664062 81.769531 176.085938 81.769531 164.265625 C 81.769531 152.441406 91.355469 142.863281 103.171875 142.863281 Z M 103.171875 142.863281"/><path style="stroke:none;fill-rule:nonzero;fill:#231f20;fill-opacity:1" d="M 113.429688 164.261719 C 113.429688 164.9375 113.363281 165.605469 113.234375 166.265625 C 113.101562 166.925781 112.90625 167.566406 112.648438 168.1875 C 112.390625 168.8125 112.074219 169.402344 111.703125 169.960938 C 111.328125 170.523438 110.902344 171.039062 110.425781 171.515625 C 109.949219 171.992188 109.433594 172.417969 108.871094 172.792969 C 108.3125 173.167969 107.71875 173.480469 107.097656 173.738281 C 106.476562 173.996094 105.835938 174.191406 105.175781 174.324219 C 104.511719 174.453125 103.847656 174.519531 103.171875 174.519531 C 102.5 174.519531 101.832031 174.453125 101.171875 174.324219 C 100.511719 174.191406 99.871094 173.996094 99.246094 173.738281 C 98.625 173.480469 98.035156 173.167969 97.472656 172.792969 C 96.914062 172.417969 96.394531 171.992188 95.921875 171.515625 C 95.445312 171.039062 95.019531 170.523438 94.644531 169.960938 C 94.269531 169.402344 93.953125 168.8125 93.695312 168.1875 C 93.4375 167.566406 93.242188 166.925781 93.113281 166.265625 C 92.980469 165.605469 92.914062 164.9375 92.914062 164.261719 C 92.914062 163.589844 92.980469 162.921875 93.113281 162.261719 C 93.242188 161.601562 93.4375 160.960938 93.695312 160.339844 C 93.953125 159.714844 94.269531 159.125 94.644531 158.566406 C 95.019531 158.003906 95.445312 157.488281 95.921875 157.011719 C 96.394531 156.535156 96.914062 156.109375 97.472656 155.734375 C 98.035156 155.359375 98.625 155.042969 99.246094 154.785156 C 99.871094 154.527344 100.511719 154.335938 101.171875 154.203125 C 101.832031 154.070312 102.5 154.007812 103.171875 154.007812 C 103.847656 154.007812 104.511719 154.070312 105.175781 154.203125 C 105.835938 154.335938 106.476562 154.527344 107.097656 154.785156 C 107.71875 155.042969 108.3125 155.359375 108.871094 155.734375 C 109.433594 156.109375 109.949219 156.535156 110.425781 157.011719 C 110.902344 157.488281 111.328125 158.003906 111.703125 158.566406 C 112.074219 159.125 112.390625 159.714844 112.648438 160.339844 C 112.90625 160.960938 113.101562 161.601562 113.234375 162.261719 C 113.363281 162.921875 113.429688 163.589844 113.429688 164.261719 Z M 113.429688 164.261719"/><g clip-path="url(#clip1)" clip-rule="nonzero"><path style="stroke:none;fill-rule:nonzero;fill:#231f20;fill-opacity:1" d="M 103.171875 187.140625 C 90.558594 187.140625 80.296875 176.878906 80.296875 164.265625 C 80.296875 151.652344 90.558594 141.390625 103.171875 141.390625 C 115.785156 141.390625 126.046875 151.652344 126.046875 164.265625 C 126.046875 176.878906 115.785156 187.140625 103.171875 187.140625 Z M 103.171875 144.910156 C 92.5 144.910156 83.816406 153.59375 83.816406 164.265625 C 83.816406 174.941406 92.5 183.621094 103.171875 183.621094 C 113.84375 183.621094 122.527344 174.941406 122.527344 164.265625 C 122.527344 153.59375 113.84375 144.910156 103.171875 144.910156 Z M 103.171875 144.910156"/></g><path style="stroke:none;fill-rule:nonzero;fill:#fff;fill-opacity:1" d="M 103.171875 195.941406 C 114.996094 195.941406 124.578125 205.523438 124.578125 217.34375 C 124.578125 229.164062 114.996094 238.746094 103.171875 238.746094 C 91.355469 238.746094 81.769531 229.164062 81.769531 217.34375 C 81.769531 205.523438 91.355469 195.941406 103.171875 195.941406 Z M 103.171875 195.941406"/><path style="stroke:none;fill-rule:nonzero;fill:#d9d9d8;fill-opacity:1" d="M 113.429688 217.34375 C 113.429688 218.015625 113.363281 218.683594 113.234375 219.34375 C 113.101562 220.003906 112.90625 220.644531 112.648438 221.269531 C 112.390625 221.890625 112.074219 222.480469 111.703125 223.042969 C 111.328125 223.601562 110.902344 224.121094 110.425781 224.597656 C 109.949219 225.070312 109.433594 225.496094 108.871094 225.871094 C 108.3125 226.246094 107.71875 226.5625 107.097656 226.820312 C 106.476562 227.078125 105.835938 227.273438 105.175781 227.402344 C 104.511719 227.535156 103.847656 227.601562 103.171875 227.601562 C 102.5 227.601562 101.832031 227.535156 101.171875 227.402344 C 100.511719 227.273438 99.871094 227.078125 99.246094 226.820312 C 98.625 226.5625 98.035156 226.246094 97.472656 225.871094 C 96.914062 225.496094 96.394531 225.070312 95.921875 224.597656 C 95.445312 224.121094 95.019531 223.601562 94.644531 223.042969 C 94.269531 222.480469 93.953125 221.890625 93.695312 221.269531 C 93.4375 220.644531 93.242188 220.003906 93.113281 219.34375 C 92.980469 218.683594 92.914062 218.015625 92.914062 217.34375 C 92.914062 216.667969 92.980469 216.003906 93.113281 215.339844 C 93.242188 214.679688 93.4375 214.039062 93.695312 213.417969 C 93.953125 212.796875 94.269531 212.203125 94.644531 211.644531 C 95.019531 211.085938 95.445312 210.566406 95.921875 210.089844 C 96.394531 209.613281 96.914062 209.1875 97.472656 208.8125 C 98.035156 208.441406 98.625 208.125 99.246094 207.867188 C 99.871094 207.609375 100.511719 207.414062 101.171875 207.28125 C 101.832031 207.152344 102.5 207.085938 103.171875 207.085938 C 103.847656 207.085938 104.511719 207.152344 105.175781 207.28125 C 105.835938 207.414062 106.476562 207.609375 107.097656 207.867188 C 107.71875 208.125 108.3125 208.441406 108.871094 208.8125 C 109.433594 209.1875 109.949219 209.613281 110.425781 210.089844 C 110.902344 210.566406 111.328125 211.085938 111.703125 211.644531 C 112.074219 212.203125 112.390625 212.796875 112.648438 213.417969 C 112.90625 214.039062 113.101562 214.679688 113.234375 215.339844 C 113.363281 216.003906 113.429688 216.667969 113.429688 217.34375 Z M 113.429688 217.34375"/><g clip-path="url(#clip2)" clip-rule="nonzero"><path style="stroke:none;fill-rule:nonzero;fill:#231f20;fill-opacity:1" d="M 103.171875 240.21875 C 90.558594 240.21875 80.296875 229.957031 80.296875 217.34375 C 80.296875 204.730469 90.558594 194.46875 103.171875 194.46875 C 115.785156 194.46875 126.046875 204.730469 126.046875 217.34375 C 126.046875 229.957031 115.785156 240.21875 103.171875 240.21875 Z M 103.171875 197.988281 C 92.5 197.988281 83.816406 206.671875 83.816406 217.34375 C 83.816406 228.019531 92.5 236.699219 103.171875 236.699219 C 113.84375 236.699219 122.527344 228.019531 122.527344 217.34375 C 122.527344 206.671875 113.84375 197.988281 103.171875 197.988281 Z M 103.171875 197.988281"/></g><path style="stroke:none;fill-rule:nonzero;fill:#fff;fill-opacity:1" d="M 103.171875 248.191406 C 114.996094 248.191406 124.578125 257.773438 124.578125 269.59375 C 124.578125 281.414062 114.996094 290.996094 103.171875 290.996094 C 91.355469 290.996094 81.769531 281.414062 81.769531 269.59375 C 81.769531 257.773438 91.355469 248.191406 103.171875 248.191406 Z M 103.171875 248.191406"/><path style="stroke:none;fill-rule:nonzero;fill:#d9d9d8;fill-opacity:1" d="M 113.429688 269.59375 C 113.429688 270.269531 113.363281 270.933594 113.234375 271.59375 C 113.101562 272.257812 112.90625 272.898438 112.648438 273.519531 C 112.390625 274.140625 112.074219 274.734375 111.703125 275.292969 C 111.328125 275.851562 110.902344 276.371094 110.425781 276.847656 C 109.949219 277.324219 109.433594 277.75 108.871094 278.125 C 108.3125 278.496094 107.71875 278.8125 107.097656 279.070312 C 106.476562 279.328125 105.835938 279.523438 105.175781 279.65625 C 104.511719 279.785156 103.847656 279.851562 103.171875 279.851562 C 102.5 279.851562 101.832031 279.785156 101.171875 279.65625 C 100.511719 279.523438 99.871094 279.328125 99.246094 279.070312 C 98.625 278.8125 98.035156 278.496094 97.472656 278.125 C 96.914062 277.75 96.394531 277.324219 95.921875 276.847656 C 95.445312 276.371094 95.019531 275.851562 94.644531 275.292969 C 94.269531 274.734375 93.953125 274.140625 93.695312 273.519531 C 93.4375 272.898438 93.242188 272.257812 93.113281 271.59375 C 92.980469 270.933594 92.914062 270.269531 92.914062 269.59375 C 92.914062 268.921875 92.980469 268.253906 93.113281 267.59375 C 93.242188 266.933594 93.4375 266.292969 93.695312 265.667969 C 93.953125 265.046875 94.269531 264.457031 94.644531 263.894531 C 95.019531 263.335938 95.445312 262.816406 95.921875 262.339844 C 96.394531 261.863281 96.914062 261.441406 97.472656 261.066406 C 98.035156 260.691406 98.625 260.375 99.246094 260.117188 C 99.871094 259.859375 100.511719 259.664062 101.171875 259.535156 C 101.832031 259.402344 102.5 259.335938 103.171875 259.335938 C 103.847656 259.335938 104.511719 259.402344 105.175781 259.535156 C 105.835938 259.664062 106.476562 259.859375 107.097656 260.117188 C 107.71875 260.375 108.3125 260.691406 108.871094 261.066406 C 109.433594 261.441406 109.949219 261.863281 110.425781 262.339844 C 110.902344 262.816406 111.328125 263.335938 111.703125 263.894531 C 112.074219 264.457031 112.390625 265.046875 112.648438 265.667969 C 112.90625 266.292969 113.101562 266.933594 113.234375 267.59375 C 113.363281 268.253906 113.429688 268.921875 113.429688 269.59375 Z M 113.429688 269.59375"/><g clip-path="url(#clip3)" clip-rule="nonzero"><path style="stroke:none;fill-rule:nonzero;fill:#231f20;fill-opacity:1" d="M 103.171875 292.472656 C 90.558594 292.472656 80.296875 282.210938 80.296875 269.597656 C 80.296875 256.984375 90.558594 246.722656 103.171875 246.722656 C 115.785156 246.722656 126.046875 256.984375 126.046875 269.597656 C 126.046875 282.210938 115.785156 292.472656 103.171875 292.472656 Z M 103.171875 250.242188 C 92.5 250.242188 83.816406 258.925781 83.816406 269.597656 C 83.816406 280.269531 92.5 288.953125 103.171875 288.953125 C 113.84375 288.953125 122.527344 280.269531 122.527344 269.597656 C 122.527344 258.925781 113.84375 250.242188 103.171875 250.242188 Z M 103.171875 250.242188"/></g><path style="stroke:none;fill-rule:nonzero;fill:#231f20;fill-opacity:1" d="M 150.515625 158.820312 L 172.964844 158.820312 C 173.460938 158.820312 173.9375 158.914062 174.394531 159.105469 C 174.851562 159.296875 175.257812 159.566406 175.609375 159.917969 C 175.960938 160.269531 176.230469 160.675781 176.417969 161.136719 C 176.609375 161.59375 176.703125 162.074219 176.703125 162.570312 C 176.703125 163.066406 176.609375 163.546875 176.417969 164.003906 C 176.230469 164.464844 175.960938 164.871094 175.609375 165.222656 C 175.257812 165.574219 174.851562 165.84375 174.394531 166.035156 C 173.9375 166.226562 173.460938 166.320312 172.964844 166.320312 L 150.515625 166.320312 C 150.019531 166.320312 149.542969 166.226562 149.085938 166.035156 C 148.628906 165.84375 148.222656 165.574219 147.871094 165.222656 C 147.523438 164.871094 147.25 164.464844 147.0625 164.003906 C 146.871094 163.546875 146.777344 163.066406 146.777344 162.570312 C 146.777344 162.074219 146.871094 161.59375 147.0625 161.136719 C 147.25 160.675781 147.523438 160.269531 147.871094 159.917969 C 148.222656 159.566406 148.628906 159.296875 149.085938 159.105469 C 149.542969 158.914062 150.019531 158.820312 150.515625 158.820312 Z M 187.925781 158.820312 L 210.371094 158.820312 C 210.867188 158.820312 211.347656 158.914062 211.804688 159.105469 C 212.261719 159.296875 212.667969 159.566406 213.019531 159.917969 C 213.367188 160.269531 213.640625 160.675781 213.828125 161.136719 C 214.019531 161.59375 214.113281 162.074219 214.113281 162.570312 C 214.113281 163.066406 214.019531 163.546875 213.828125 164.003906 C 213.640625 164.464844 213.367188 164.871094 213.019531 165.222656 C 212.667969 165.574219 212.261719 165.84375 211.804688 166.035156 C 211.347656 166.226562 210.867188 166.320312 210.371094 166.320312 L 187.925781 166.320312 C 187.429688 166.320312 186.953125 166.226562 186.496094 166.035156 C 186.039062 165.84375 185.632812 165.574219 185.28125 165.222656 C 184.929688 164.871094 184.660156 164.464844 184.472656 164.003906 C 184.28125 163.546875 184.1875 163.066406 184.1875 162.570312 C 184.1875 162.074219 184.28125 161.59375 184.472656 161.136719 C 184.660156 160.675781 184.929688 160.269531 185.28125 159.917969 C 185.632812 159.566406 186.039062 159.296875 186.496094 159.105469 C 186.953125 158.914062 187.429688 158.820312 187.925781 158.820312 Z M 225.335938 158.820312 L 247.78125 158.820312 C 248.277344 158.820312 248.753906 158.914062 249.214844 159.105469 C 249.671875 159.296875 250.078125 159.566406 250.425781 159.917969 C 250.777344 160.269531 251.046875 160.675781 251.238281 161.136719 C 251.429688 161.59375 251.523438 162.074219 251.523438 162.570312 C 251.523438 163.066406 251.429688 163.546875 251.238281 164.003906 C 251.046875 164.464844 250.777344 164.871094 250.425781 165.222656 C 250.078125 165.574219 249.671875 165.84375 249.214844 166.035156 C 248.753906 166.226562 248.277344 166.320312 247.78125 166.320312 L 225.335938 166.320312 C 224.839844 166.320312 224.363281 166.226562 223.90625 166.035156 C 223.445312 165.84375 223.042969 165.574219 222.691406 165.222656 C 222.339844 164.871094 222.070312 164.464844 221.878906 164.003906 C 221.691406 163.546875 221.597656 163.066406 221.597656 162.570312 C 221.597656 162.074219 221.691406 161.59375 221.878906 161.136719 C 222.070312 160.675781 222.339844 160.269531 222.691406 159.917969 C 223.042969 159.566406 223.445312 159.296875 223.90625 159.105469 C 224.363281 158.914062 224.839844 158.820312 225.335938 158.820312 Z M 262.746094 158.820312 L 278.796875 158.820312 C 279.292969 158.820312 279.769531 158.914062 280.226562 159.105469 C 280.683594 159.296875 281.089844 159.566406 281.441406 159.917969 C 281.792969 160.269531 282.0625 160.675781 282.25 161.136719 C 282.441406 161.59375 282.535156 162.074219 282.535156 162.570312 C 282.535156 163.066406 282.441406 163.546875 282.25 164.003906 C 282.0625 164.464844 281.792969 164.871094 281.441406 165.222656 C 281.089844 165.574219 280.683594 165.84375 280.226562 166.035156 C 279.769531 166.226562 279.292969 166.320312 278.796875 166.320312 L 262.746094 166.320312 C 262.25 166.320312 261.773438 166.226562 261.316406 166.035156 C 260.855469 165.84375 260.453125 165.574219 260.101562 165.222656 C 259.75 164.871094 259.480469 164.464844 259.289062 164.003906 C 259.101562 163.546875 259.003906 163.066406 259.003906 162.570312 C 259.003906 162.074219 259.101562 161.59375 259.289062 161.136719 C 259.480469 160.675781 259.75 160.269531 260.101562 159.917969 C 260.453125 159.566406 260.855469 159.296875 261.316406 159.105469 C 261.773438 158.914062 262.25 158.820312 262.746094 158.820312 Z M 262.746094 158.820312"/><path style="stroke:none;fill-rule:nonzero;fill:#231f20;fill-opacity:1" d="M 150.515625 210.023438 L 172.964844 210.023438 C 173.460938 210.023438 173.9375 210.121094 174.394531 210.308594 C 174.851562 210.5 175.257812 210.773438 175.609375 211.125 C 175.960938 211.476562 176.230469 211.878906 176.417969 212.339844 C 176.609375 212.800781 176.703125 213.277344 176.703125 213.773438 C 176.703125 214.273438 176.609375 214.75 176.417969 215.210938 C 176.230469 215.667969 175.960938 216.074219 175.609375 216.425781 C 175.257812 216.777344 174.851562 217.050781 174.394531 217.238281 C 173.9375 217.429688 173.460938 217.523438 172.964844 217.523438 L 150.515625 217.523438 C 150.019531 217.523438 149.542969 217.429688 149.085938 217.238281 C 148.628906 217.050781 148.222656 216.777344 147.871094 216.425781 C 147.523438 216.074219 147.25 215.667969 147.0625 215.210938 C 146.871094 214.75 146.777344 214.273438 146.777344 213.773438 C 146.777344 213.277344 146.871094 212.800781 147.0625 212.339844 C 147.25 211.878906 147.523438 211.476562 147.871094 211.125 C 148.222656 210.773438 148.628906 210.5 149.085938 210.308594 C 149.542969 210.121094 150.019531 210.023438 150.515625 210.023438 Z M 187.925781 210.023438 L 210.371094 210.023438 C 210.867188 210.023438 211.347656 210.121094 211.804688 210.308594 C 212.261719 210.5 212.667969 210.773438 213.019531 211.125 C 213.367188 211.476562 213.640625 211.878906 213.828125 212.339844 C 214.019531 212.800781 214.113281 213.277344 214.113281 213.773438 C 214.113281 214.273438 214.019531 214.75 213.828125 215.210938 C 213.640625 215.667969 213.367188 216.074219 213.019531 216.425781 C 212.667969 216.777344 212.261719 217.050781 211.804688 217.238281 C 211.347656 217.429688 210.867188 217.523438 210.371094 217.523438 L 187.925781 217.523438 C 187.429688 217.523438 186.953125 217.429688 186.496094 217.238281 C 186.039062 217.050781 185.632812 216.777344 185.28125 216.425781 C 184.929688 216.074219 184.660156 215.667969 184.472656 215.210938 C 184.28125 214.75 184.1875 214.273438 184.1875 213.773438 C 184.1875 213.277344 184.28125 212.800781 184.472656 212.339844 C 184.660156 211.878906 184.929688 211.476562 185.28125 211.125 C 185.632812 210.773438 186.039062 210.5 186.496094 210.308594 C 186.953125 210.121094 187.429688 210.023438 187.925781 210.023438 Z M 225.335938 210.023438 L 247.78125 210.023438 C 248.277344 210.023438 248.753906 210.121094 249.214844 210.308594 C 249.671875 210.5 250.078125 210.773438 250.425781 211.125 C 250.777344 211.476562 251.046875 211.878906 251.238281 212.339844 C 251.429688 212.800781 251.523438 213.277344 251.523438 213.773438 C 251.523438 214.273438 251.429688 214.75 251.238281 215.210938 C 251.046875 215.667969 250.777344 216.074219 250.425781 216.425781 C 250.078125 216.777344 249.671875 217.050781 249.214844 217.238281 C 248.753906 217.429688 248.277344 217.523438 247.78125 217.523438 L 225.335938 217.523438 C 224.839844 217.523438 224.363281 217.429688 223.90625 217.238281 C 223.445312 217.050781 223.042969 216.777344 222.691406 216.425781 C 222.339844 216.074219 222.070312 215.667969 221.878906 215.210938 C 221.691406 214.75 221.597656 214.273438 221.597656 213.773438 C 221.597656 213.277344 221.691406 212.800781 221.878906 212.339844 C 222.070312 211.878906 222.339844 211.476562 222.691406 211.125 C 223.042969 210.773438 223.445312 210.5 223.90625 210.308594 C 224.363281 210.121094 224.839844 210.023438 225.335938 210.023438 Z M 262.746094 210.023438 L 278.796875 210.023438 C 279.292969 210.023438 279.769531 210.121094 280.226562 210.308594 C 280.683594 210.5 281.089844 210.773438 281.441406 211.125 C 281.792969 211.476562 282.0625 211.878906 282.25 212.339844 C 282.441406 212.800781 282.535156 213.277344 282.535156 213.773438 C 282.535156 214.273438 282.441406 214.75 282.25 215.210938 C 282.0625 215.667969 281.792969 216.074219 281.441406 216.425781 C 281.089844 216.777344 280.683594 217.050781 280.226562 217.238281 C 279.769531 217.429688 279.292969 217.523438 278.796875 217.523438 L 262.746094 217.523438 C 262.25 217.523438 261.773438 217.429688 261.316406 217.238281 C 260.855469 217.050781 260.453125 216.777344 260.101562 216.425781 C 259.75 216.074219 259.480469 215.667969 259.289062 215.210938 C 259.101562 214.75 259.003906 214.273438 259.003906 213.773438 C 259.003906 213.277344 259.101562 212.800781 259.289062 212.339844 C 259.480469 211.878906 259.75 211.476562 260.101562 211.125 C 260.453125 210.773438 260.855469 210.5 261.316406 210.308594 C 261.773438 210.121094 262.25 210.023438 262.746094 210.023438 Z M 262.746094 210.023438"/><path style="stroke:none;fill-rule:nonzero;fill:#231f20;fill-opacity:1" d="M 150.515625 262.277344 L 172.964844 262.277344 C 173.460938 262.277344 173.9375 262.371094 174.394531 262.5625 C 174.851562 262.753906 175.257812 263.023438 175.609375 263.375 C 175.960938 263.726562 176.230469 264.132812 176.417969 264.589844 C 176.609375 265.050781 176.703125 265.527344 176.703125 266.027344 C 176.703125 266.523438 176.609375 267.003906 176.417969 267.460938 C 176.230469 267.921875 175.960938 268.328125 175.609375 268.679688 C 175.257812 269.03125 174.851562 269.300781 174.394531 269.492188 C 173.9375 269.679688 173.460938 269.777344 172.964844 269.777344 L 150.515625 269.777344 C 150.019531 269.777344 149.542969 269.679688 149.085938 269.492188 C 148.628906 269.300781 148.222656 269.03125 147.871094 268.679688 C 147.523438 268.328125 147.25 267.921875 147.0625 267.460938 C 146.871094 267.003906 146.777344 266.523438 146.777344 266.027344 C 146.777344 265.527344 146.871094 265.050781 147.0625 264.589844 C 147.25 264.132812 147.523438 263.726562 147.871094 263.375 C 148.222656 263.023438 148.628906 262.753906 149.085938 262.5625 C 149.542969 262.371094 150.019531 262.277344 150.515625 262.277344 Z M 187.925781 262.277344 L 210.371094 262.277344 C 210.867188 262.277344 211.347656 262.371094 211.804688 262.5625 C 212.261719 262.753906 212.667969 263.023438 213.019531 263.375 C 213.367188 263.726562 213.640625 264.132812 213.828125 264.589844 C 214.019531 265.050781 214.113281 265.527344 214.113281 266.027344 C 214.113281 266.523438 214.019531 267.003906 213.828125 267.460938 C 213.640625 267.921875 213.367188 268.328125 213.019531 268.679688 C 212.667969 269.03125 212.261719 269.300781 211.804688 269.492188 C 211.347656 269.679688 210.867188 269.777344 210.371094 269.777344 L 187.925781 269.777344 C 187.429688 269.777344 186.953125 269.679688 186.496094 269.492188 C 186.039062 269.300781 185.632812 269.03125 185.28125 268.679688 C 184.929688 268.328125 184.660156 267.921875 184.472656 267.460938 C 184.28125 267.003906 184.1875 266.523438 184.1875 266.027344 C 184.1875 265.527344 184.28125 265.050781 184.472656 264.589844 C 184.660156 264.132812 184.929688 263.726562 185.28125 263.375 C 185.632812 263.023438 186.039062 262.753906 186.496094 262.5625 C 186.953125 262.371094 187.429688 262.277344 187.925781 262.277344 Z M 225.335938 262.277344 L 247.78125 262.277344 C 248.277344 262.277344 248.753906 262.371094 249.214844 262.5625 C 249.671875 262.753906 250.078125 263.023438 250.425781 263.375 C 250.777344 263.726562 251.046875 264.132812 251.238281 264.589844 C 251.429688 265.050781 251.523438 265.527344 251.523438 266.027344 C 251.523438 266.523438 251.429688 267.003906 251.238281 267.460938 C 251.046875 267.921875 250.777344 268.328125 250.425781 268.679688 C 250.078125 269.03125 249.671875 269.300781 249.214844 269.492188 C 248.753906 269.679688 248.277344 269.777344 247.78125 269.777344 L 225.335938 269.777344 C 224.839844 269.777344 224.363281 269.679688 223.90625 269.492188 C 223.445312 269.300781 223.042969 269.03125 222.691406 268.679688 C 222.339844 268.328125 222.070312 267.921875 221.878906 267.460938 C 221.691406 267.003906 221.597656 266.523438 221.597656 266.027344 C 221.597656 265.527344 221.691406 265.050781 221.878906 264.589844 C 222.070312 264.132812 222.339844 263.726562 222.691406 263.375 C 223.042969 263.023438 223.445312 262.753906 223.90625 262.5625 C 224.363281 262.371094 224.839844 262.277344 225.335938 262.277344 Z M 262.746094 262.277344 L 278.796875 262.277344 C 279.292969 262.277344 279.769531 262.371094 280.226562 262.5625 C 280.683594 262.753906 281.089844 263.023438 281.441406 263.375 C 281.792969 263.726562 282.0625 264.132812 282.25 264.589844 C 282.441406 265.050781 282.535156 265.527344 282.535156 266.027344 C 282.535156 266.523438 282.441406 267.003906 282.25 267.460938 C 282.0625 267.921875 281.792969 268.328125 281.441406 268.679688 C 281.089844 269.03125 280.683594 269.300781 280.226562 269.492188 C 279.769531 269.679688 279.292969 269.777344 278.796875 269.777344 L 262.746094 269.777344 C 262.25 269.777344 261.773438 269.679688 261.316406 269.492188 C 260.855469 269.300781 260.453125 269.03125 260.101562 268.679688 C 259.75 268.328125 259.480469 267.921875 259.289062 267.460938 C 259.101562 267.003906 259.003906 266.523438 259.003906 266.027344 C 259.003906 265.527344 259.101562 265.050781 259.289062 264.589844 C 259.480469 264.132812 259.75 263.726562 260.101562 263.375 C 260.453125 263.023438 260.855469 262.753906 261.316406 262.5625 C 261.773438 262.371094 262.25 262.277344 262.746094 262.277344 Z M 262.746094 262.277344"/><g clip-path="url(#clip4)" clip-rule="nonzero"><path style="stroke:none;fill-rule:nonzero;fill:#231f20;fill-opacity:1" d="M 81.355469 74.578125 C 72.738281 74.578125 65.753906 67.46875 65.753906 58.699219 C 65.753906 49.929688 72.738281 42.820312 81.355469 42.820312 C 89.972656 42.820312 96.957031 49.929688 96.957031 58.699219 C 96.957031 67.46875 89.972656 74.578125 81.355469 74.578125 Z M 90.945312 97.164062 L 82.585938 79.476562 L 83.457031 78.1875 L 91.878906 95.769531 Z M 73.171875 97.164062 L 72.238281 95.769531 L 79.910156 79.859375 L 80.78125 78.230469 L 81.636719 79.355469 Z M 102.230469 91.539062 L 102.976562 91.578125 L 94.433594 73.863281 L 95.613281 74.234375 L 95.023438 71.6875 L 97.558594 72.113281 L 96.636719 69.671875 L 99.203125 69.746094 L 97.964844 67.457031 L 100.515625 67.171875 L 98.980469 65.074219 L 101.472656 64.4375 L 99.667969 62.574219 L 102.050781 61.59375 L 100.015625 60 L 102.242188 58.699219 L 100.015625 57.398438 L 102.050781 55.804688 L 99.667969 54.824219 L 101.472656 52.964844 L 98.984375 52.324219 L 100.515625 50.230469 L 97.964844 49.941406 L 99.203125 47.65625 L 96.636719 47.726562 L 97.558594 45.285156 L 95.023438 45.710938 L 95.613281 43.167969 L 93.160156 43.9375 L 93.402344 41.332031 L 91.074219 42.433594 L 90.96875 39.824219 L 88.808594 41.238281 L 88.351562 38.667969 L 86.40625 40.371094 L 85.605469 37.886719 L 83.90625 39.84375 L 82.78125 37.492188 L 81.355469 39.667969 L 79.929688 37.492188 L 78.808594 39.84375 L 77.105469 37.886719 L 76.308594 40.371094 L 74.359375 38.667969 L 73.902344 41.238281 L 71.746094 39.824219 L 71.640625 42.433594 L 69.308594 41.332031 L 69.554688 43.933594 L 67.097656 43.164062 L 67.6875 45.707031 L 65.15625 45.285156 L 66.074219 47.726562 L 63.507812 47.652344 L 64.746094 49.941406 L 62.191406 50.226562 L 63.730469 52.324219 L 61.238281 52.964844 L 63.042969 54.824219 L 60.660156 55.804688 L 62.695312 57.398438 L 60.46875 58.699219 L 62.695312 60 L 60.660156 61.59375 L 63.042969 62.570312 L 61.238281 64.433594 L 63.730469 65.074219 L 62.191406 67.167969 L 64.746094 67.453125 L 63.507812 69.746094 L 66.074219 69.671875 L 65.152344 72.113281 L 67.6875 71.6875 L 67.097656 74.230469 L 69.554688 73.460938 L 69.476562 74.296875 L 61.144531 91.578125 L 61.890625 91.539062 L 69.363281 76.039062 L 71.441406 75.054688 L 63.539062 91.449219 L 63.230469 91.464844 L 69.144531 91.136719 L 73.59375 97.796875 L 82.058594 80.234375 L 90.523438 97.796875 L 94.976562 91.136719 L 100.886719 91.464844 L 100.582031 91.449219 L 93.09375 75.917969 L 93.402344 76.066406 L 93.15625 73.464844 L 93.578125 73.597656 L 102.230469 91.539062"/></g><path style="stroke:none;fill-rule:nonzero;fill:#231f20;fill-opacity:1" d="M 81.355469 44.421875 C 73.609375 44.421875 67.324219 50.8125 67.324219 58.699219 C 67.324219 66.585938 73.609375 72.976562 81.355469 72.976562 C 89.105469 72.976562 95.386719 66.585938 95.386719 58.699219 C 95.386719 50.8125 89.105469 44.421875 81.355469 44.421875"/></g></svg>