<svg xmlns="http://www.w3.org/2000/svg" xmlns:xlink="http://www.w3.org/1999/xlink" width="500" height="500" version="1.2" viewBox="0 0 375 375"><defs><clipPath id="clip1"><path d="M 60.429688 37.5 L 103 37.5 L 103 97.5 L 60.429688 97.5 Z M 60.429688 37.5"/></clipPath><clipPath id="clip2"><path d="M 75 145 L 116.363281 145 L 116.363281 177 L 75 177 Z M 75 145"/></clipPath><clipPath id="clip3"><path d="M 65.398438 139.046875 L 113 139.046875 L 113 186.296875 L 65.398438 186.296875 Z M 65.398438 139.046875"/></clipPath><clipPath id="clip4"><path d="M 75 200 L 116.363281 200 L 116.363281 232 L 75 232 Z M 75 200"/></clipPath><clipPath id="clip5"><path d="M 65.398438 194 L 113 194 L 113 241.25 L 65.398438 241.25 Z M 65.398438 194"/></clipPath><clipPath id="clip6"><path d="M 75 252 L 116.363281 252 L 116.363281 284 L 75 284 Z M 75 252"/></clipPath><clipPath id="clip7"><path d="M 65.398438 246.253906 L 113 246.253906 L 113 293.503906 L 65.398438 293.503906 Z M 65.398438 246.253906"/></clipPath></defs><g id="surface1"><path style="stroke:none;fill-rule:nonzero;fill:#231f20;fill-opacity:1" d="M 62.09375 337.753906 L 62.09375 348.515625 L 334.109375 348.515625 L 334.109375 93.160156 L 323.394531 82.398438 L 323.394531 337.753906 Z M 62.09375 337.753906"/><path style="stroke:none;fill-rule:nonzero;fill:#fff;fill-opacity:1" d="M 269.082031 26.820312 L 45.152344 27.070312 L 45.152344 335.25 L 321.898438 335.25 L 322.148438 79.394531 Z M 269.082031 26.820312"/><path style="stroke:none;fill-rule:nonzero;fill:#231f20;fill-opacity:1" d="M 323.394531 78.890625 L 323.144531 78.640625 L 296.488281 51.855469 L 283.28125 38.585938 L 269.332031 24.566406 L 43.90625 24.566406 L 43.90625 337.753906 L 59.601562 337.753906 L 59.601562 351.019531 L 336.597656 351.019531 L 336.597656 92.160156 Z M 270.078125 28.824219 L 294.742188 53.355469 L 319.160156 77.890625 L 270.078125 77.890625 Z M 46.398438 335.25 L 46.398438 27.070312 L 267.585938 27.070312 L 267.585938 79.394531 C 267.585938 80.144531 268.085938 80.644531 268.832031 80.644531 L 320.902344 80.644531 L 320.902344 335.25 Z M 334.109375 348.515625 L 62.09375 348.515625 L 62.09375 337.753906 L 323.394531 337.753906 L 323.394531 82.398438 L 334.109375 93.160156 Z M 334.109375 348.515625"/><path style="stroke:none;fill-rule:nonzero;fill:#231f20;fill-opacity:1" d="M 150.515625 158.820312 L 172.964844 158.820312 C 173.460938 158.820312 173.9375 158.914062 174.394531 159.105469 C 174.851562 159.296875 175.257812 159.566406 175.609375 159.917969 C 175.960938 160.269531 176.230469 160.675781 176.417969 161.136719 C 176.609375 161.59375 176.703125 162.074219 176.703125 162.570312 C 176.703125 163.066406 176.609375 163.546875 176.417969 164.003906 C 176.230469 164.464844 175.960938 164.871094 175.609375 165.222656 C 175.257812 165.574219 174.851562 165.84375 174.394531 166.035156 C 173.9375 166.226562 173.460938 166.320312 172.964844 166.320312 L 150.515625 166.320312 C 150.019531 166.320312 149.542969 166.226562 149.085938 166.035156 C 148.628906 165.84375 148.222656 165.574219 147.871094 165.222656 C 147.523438 164.871094 147.25 164.464844 147.0625 164.003906 C 146.871094 163.546875 146.777344 163.066406 146.777344 162.570312 C 146.777344 162.074219 146.871094 161.59375 147.0625 161.136719 C 147.25 160.675781 147.523438 160.269531 147.871094 159.917969 C 148.222656 159.566406 148.628906 159.296875 149.085938 159.105469 C 149.542969 158.914062 150.019531 158.820312 150.515625 158.820312 Z M 187.925781 158.820312 L 210.371094 158.820312 C 210.867188 158.820312 211.347656 158.914062 211.804688 159.105469 C 212.261719 159.296875 212.667969 159.566406 213.019531 159.917969 C 213.367188 160.269531 213.640625 160.675781 213.828125 161.136719 C 214.019531 161.59375 214.113281 162.074219 214.113281 162.570312 C 214.113281 163.066406 214.019531 163.546875 213.828125 164.003906 C 213.640625 164.464844 213.367188 164.871094 213.019531 165.222656 C 212.667969 165.574219 212.261719 165.84375 211.804688 166.035156 C 211.347656 166.226562 210.867188 166.320312 210.371094 166.320312 L 187.925781 166.320312 C 187.429688 166.320312 186.953125 166.226562 186.496094 166.035156 C 186.039062 165.84375 185.632812 165.574219 185.28125 165.222656 C 184.929688 164.871094 184.660156 164.464844 184.472656 164.003906 C 184.28125 163.546875 184.1875 163.066406 184.1875 162.570312 C 184.1875 162.074219 184.28125 161.59375 184.472656 161.136719 C 184.660156 160.675781 184.929688 160.269531 185.28125 159.917969 C 185.632812 159.566406 186.039062 159.296875 186.496094 159.105469 C 186.953125 158.914062 187.429688 158.820312 187.925781 158.820312 Z M 225.335938 158.820312 L 247.78125 158.820312 C 248.277344 158.820312 248.753906 158.914062 249.214844 159.105469 C 249.671875 159.296875 250.078125 159.566406 250.425781 159.917969 C 250.777344 160.269531 251.046875 160.675781 251.238281 161.136719 C 251.429688 161.59375 251.523438 162.074219 251.523438 162.570312 C 251.523438 163.066406 251.429688 163.546875 251.238281 164.003906 C 251.046875 164.464844 250.777344 164.871094 250.425781 165.222656 C 250.078125 165.574219 249.671875 165.84375 249.214844 166.035156 C 248.753906 166.226562 248.277344 166.320312 247.78125 166.320312 L 225.335938 166.320312 C 224.839844 166.320312 224.363281 166.226562 223.90625 166.035156 C 223.445312 165.84375 223.042969 165.574219 222.691406 165.222656 C 222.339844 164.871094 222.070312 164.464844 221.878906 164.003906 C 221.691406 163.546875 221.597656 163.066406 221.597656 162.570312 C 221.597656 162.074219 221.691406 161.59375 221.878906 161.136719 C 222.070312 160.675781 222.339844 160.269531 222.691406 159.917969 C 223.042969 159.566406 223.445312 159.296875 223.90625 159.105469 C 224.363281 158.914062 224.839844 158.820312 225.335938 158.820312 Z M 262.746094 158.820312 L 278.796875 158.820312 C 279.292969 158.820312 279.769531 158.914062 280.226562 159.105469 C 280.683594 159.296875 281.089844 159.566406 281.441406 159.917969 C 281.792969 160.269531 282.0625 160.675781 282.25 161.136719 C 282.441406 161.59375 282.535156 162.074219 282.535156 162.570312 C 282.535156 163.066406 282.441406 163.546875 282.25 164.003906 C 282.0625 164.464844 281.792969 164.871094 281.441406 165.222656 C 281.089844 165.574219 280.683594 165.84375 280.226562 166.035156 C 279.769531 166.226562 279.292969 166.320312 278.796875 166.320312 L 262.746094 166.320312 C 262.25 166.320312 261.773438 166.226562 261.316406 166.035156 C 260.855469 165.84375 260.453125 165.574219 260.101562 165.222656 C 259.75 164.871094 259.480469 164.464844 259.289062 164.003906 C 259.101562 163.546875 259.003906 163.066406 259.003906 162.570312 C 259.003906 162.074219 259.101562 161.59375 259.289062 161.136719 C 259.480469 160.675781 259.75 160.269531 260.101562 159.917969 C 260.453125 159.566406 260.855469 159.296875 261.316406 159.105469 C 261.773438 158.914062 262.25 158.820312 262.746094 158.820312 Z M 262.746094 158.820312"/><path style="stroke:none;fill-rule:nonzero;fill:#231f20;fill-opacity:1" d="M 150.515625 210.023438 L 172.964844 210.023438 C 173.460938 210.023438 173.9375 210.121094 174.394531 210.308594 C 174.851562 210.5 175.257812 210.773438 175.609375 211.125 C 175.960938 211.476562 176.230469 211.878906 176.417969 212.339844 C 176.609375 212.800781 176.703125 213.277344 176.703125 213.773438 C 176.703125 214.273438 176.609375 214.75 176.417969 215.210938 C 176.230469 215.667969 175.960938 216.074219 175.609375 216.425781 C 175.257812 216.777344 174.851562 217.050781 174.394531 217.238281 C 173.9375 217.429688 173.460938 217.523438 172.964844 217.523438 L 150.515625 217.523438 C 150.019531 217.523438 149.542969 217.429688 149.085938 217.238281 C 148.628906 217.050781 148.222656 216.777344 147.871094 216.425781 C 147.523438 216.074219 147.25 215.667969 147.0625 215.210938 C 146.871094 214.75 146.777344 214.273438 146.777344 213.773438 C 146.777344 213.277344 146.871094 212.800781 147.0625 212.339844 C 147.25 211.878906 147.523438 211.476562 147.871094 211.125 C 148.222656 210.773438 148.628906 210.5 149.085938 210.308594 C 149.542969 210.121094 150.019531 210.023438 150.515625 210.023438 Z M 187.925781 210.023438 L 210.371094 210.023438 C 210.867188 210.023438 211.347656 210.121094 211.804688 210.308594 C 212.261719 210.5 212.667969 210.773438 213.019531 211.125 C 213.367188 211.476562 213.640625 211.878906 213.828125 212.339844 C 214.019531 212.800781 214.113281 213.277344 214.113281 213.773438 C 214.113281 214.273438 214.019531 214.75 213.828125 215.210938 C 213.640625 215.667969 213.367188 216.074219 213.019531 216.425781 C 212.667969 216.777344 212.261719 217.050781 211.804688 217.238281 C 211.347656 217.429688 210.867188 217.523438 210.371094 217.523438 L 187.925781 217.523438 C 187.429688 217.523438 186.953125 217.429688 186.496094 217.238281 C 186.039062 217.050781 185.632812 216.777344 185.28125 216.425781 C 184.929688 216.074219 184.660156 215.667969 184.472656 215.210938 C 184.28125 214.75 184.1875 214.273438 184.1875 213.773438 C 184.1875 213.277344 184.28125 212.800781 184.472656 212.339844 C 184.660156 211.878906 184.929688 211.476562 185.28125 211.125 C 185.632812 210.773438 186.039062 210.5 186.496094 210.308594 C 186.953125 210.121094 187.429688 210.023438 187.925781 210.023438 Z M 225.335938 210.023438 L 247.78125 210.023438 C 248.277344 210.023438 248.753906 210.121094 249.214844 210.308594 C 249.671875 210.5 250.078125 210.773438 250.425781 211.125 C 250.777344 211.476562 251.046875 211.878906 251.238281 212.339844 C 251.429688 212.800781 251.523438 213.277344 251.523438 213.773438 C 251.523438 214.273438 251.429688 214.75 251.238281 215.210938 C 251.046875 215.667969 250.777344 216.074219 250.425781 216.425781 C 250.078125 216.777344 249.671875 217.050781 249.214844 217.238281 C 248.753906 217.429688 248.277344 217.523438 247.78125 217.523438 L 225.335938 217.523438 C 224.839844 217.523438 224.363281 217.429688 223.90625 217.238281 C 223.445312 217.050781 223.042969 216.777344 222.691406 216.425781 C 222.339844 216.074219 222.070312 215.667969 221.878906 215.210938 C 221.691406 214.75 221.597656 214.273438 221.597656 213.773438 C 221.597656 213.277344 221.691406 212.800781 221.878906 212.339844 C 222.070312 211.878906 222.339844 211.476562 222.691406 211.125 C 223.042969 210.773438 223.445312 210.5 223.90625 210.308594 C 224.363281 210.121094 224.839844 210.023438 225.335938 210.023438 Z M 262.746094 210.023438 L 278.796875 210.023438 C 279.292969 210.023438 279.769531 210.121094 280.226562 210.308594 C 280.683594 210.5 281.089844 210.773438 281.441406 211.125 C 281.792969 211.476562 282.0625 211.878906 282.25 212.339844 C 282.441406 212.800781 282.535156 213.277344 282.535156 213.773438 C 282.535156 214.273438 282.441406 214.75 282.25 215.210938 C 282.0625 215.667969 281.792969 216.074219 281.441406 216.425781 C 281.089844 216.777344 280.683594 217.050781 280.226562 217.238281 C 279.769531 217.429688 279.292969 217.523438 278.796875 217.523438 L 262.746094 217.523438 C 262.25 217.523438 261.773438 217.429688 261.316406 217.238281 C 260.855469 217.050781 260.453125 216.777344 260.101562 216.425781 C 259.75 216.074219 259.480469 215.667969 259.289062 215.210938 C 259.101562 214.75 259.003906 214.273438 259.003906 213.773438 C 259.003906 213.277344 259.101562 212.800781 259.289062 212.339844 C 259.480469 211.878906 259.75 211.476562 260.101562 211.125 C 260.453125 210.773438 260.855469 210.5 261.316406 210.308594 C 261.773438 210.121094 262.25 210.023438 262.746094 210.023438 Z M 262.746094 210.023438"/><path style="stroke:none;fill-rule:nonzero;fill:#231f20;fill-opacity:1" d="M 150.515625 262.277344 L 172.964844 262.277344 C 173.460938 262.277344 173.9375 262.371094 174.394531 262.5625 C 174.851562 262.753906 175.257812 263.023438 175.609375 263.375 C 175.960938 263.726562 176.230469 264.132812 176.417969 264.589844 C 176.609375 265.050781 176.703125 265.527344 176.703125 266.027344 C 176.703125 266.523438 176.609375 267.003906 176.417969 267.460938 C 176.230469 267.921875 175.960938 268.328125 175.609375 268.679688 C 175.257812 269.03125 174.851562 269.300781 174.394531 269.492188 C 173.9375 269.679688 173.460938 269.777344 172.964844 269.777344 L 150.515625 269.777344 C 150.019531 269.777344 149.542969 269.679688 149.085938 269.492188 C 148.628906 269.300781 148.222656 269.03125 147.871094 268.679688 C 147.523438 268.328125 147.25 267.921875 147.0625 267.460938 C 146.871094 267.003906 146.777344 266.523438 146.777344 266.027344 C 146.777344 265.527344 146.871094 265.050781 147.0625 264.589844 C 147.25 264.132812 147.523438 263.726562 147.871094 263.375 C 148.222656 263.023438 148.628906 262.753906 149.085938 262.5625 C 149.542969 262.371094 150.019531 262.277344 150.515625 262.277344 Z M 187.925781 262.277344 L 210.371094 262.277344 C 210.867188 262.277344 211.347656 262.371094 211.804688 262.5625 C 212.261719 262.753906 212.667969 263.023438 213.019531 263.375 C 213.367188 263.726562 213.640625 264.132812 213.828125 264.589844 C 214.019531 265.050781 214.113281 265.527344 214.113281 266.027344 C 214.113281 266.523438 214.019531 267.003906 213.828125 267.460938 C 213.640625 267.921875 213.367188 268.328125 213.019531 268.679688 C 212.667969 269.03125 212.261719 269.300781 211.804688 269.492188 C 211.347656 269.679688 210.867188 269.777344 210.371094 269.777344 L 187.925781 269.777344 C 187.429688 269.777344 186.953125 269.679688 186.496094 269.492188 C 186.039062 269.300781 185.632812 269.03125 185.28125 268.679688 C 184.929688 268.328125 184.660156 267.921875 184.472656 267.460938 C 184.28125 267.003906 184.1875 266.523438 184.1875 266.027344 C 184.1875 265.527344 184.28125 265.050781 184.472656 264.589844 C 184.660156 264.132812 184.929688 263.726562 185.28125 263.375 C 185.632812 263.023438 186.039062 262.753906 186.496094 262.5625 C 186.953125 262.371094 187.429688 262.277344 187.925781 262.277344 Z M 225.335938 262.277344 L 247.78125 262.277344 C 248.277344 262.277344 248.753906 262.371094 249.214844 262.5625 C 249.671875 262.753906 250.078125 263.023438 250.425781 263.375 C 250.777344 263.726562 251.046875 264.132812 251.238281 264.589844 C 251.429688 265.050781 251.523438 265.527344 251.523438 266.027344 C 251.523438 266.523438 251.429688 267.003906 251.238281 267.460938 C 251.046875 267.921875 250.777344 268.328125 250.425781 268.679688 C 250.078125 269.03125 249.671875 269.300781 249.214844 269.492188 C 248.753906 269.679688 248.277344 269.777344 247.78125 269.777344 L 225.335938 269.777344 C 224.839844 269.777344 224.363281 269.679688 223.90625 269.492188 C 223.445312 269.300781 223.042969 269.03125 222.691406 268.679688 C 222.339844 268.328125 222.070312 267.921875 221.878906 267.460938 C 221.691406 267.003906 221.597656 266.523438 221.597656 266.027344 C 221.597656 265.527344 221.691406 265.050781 221.878906 264.589844 C 222.070312 264.132812 222.339844 263.726562 222.691406 263.375 C 223.042969 263.023438 223.445312 262.753906 223.90625 262.5625 C 224.363281 262.371094 224.839844 262.277344 225.335938 262.277344 Z M 262.746094 262.277344 L 278.796875 262.277344 C 279.292969 262.277344 279.769531 262.371094 280.226562 262.5625 C 280.683594 262.753906 281.089844 263.023438 281.441406 263.375 C 281.792969 263.726562 282.0625 264.132812 282.25 264.589844 C 282.441406 265.050781 282.535156 265.527344 282.535156 266.027344 C 282.535156 266.523438 282.441406 267.003906 282.25 267.460938 C 282.0625 267.921875 281.792969 268.328125 281.441406 268.679688 C 281.089844 269.03125 280.683594 269.300781 280.226562 269.492188 C 279.769531 269.679688 279.292969 269.777344 278.796875 269.777344 L 262.746094 269.777344 C 262.25 269.777344 261.773438 269.679688 261.316406 269.492188 C 260.855469 269.300781 260.453125 269.03125 260.101562 268.679688 C 259.75 268.328125 259.480469 267.921875 259.289062 267.460938 C 259.101562 267.003906 259.003906 266.523438 259.003906 266.027344 C 259.003906 265.527344 259.101562 265.050781 259.289062 264.589844 C 259.480469 264.132812 259.75 263.726562 260.101562 263.375 C 260.453125 263.023438 260.855469 262.753906 261.316406 262.5625 C 261.773438 262.371094 262.25 262.277344 262.746094 262.277344 Z M 262.746094 262.277344"/><g clip-path="url(#clip1)" clip-rule="nonzero"><path style="stroke:none;fill-rule:nonzero;fill:#231f20;fill-opacity:1" d="M 81.355469 74.578125 C 72.738281 74.578125 65.753906 67.46875 65.753906 58.699219 C 65.753906 49.929688 72.738281 42.820312 81.355469 42.820312 C 89.972656 42.820312 96.957031 49.929688 96.957031 58.699219 C 96.957031 67.46875 89.972656 74.578125 81.355469 74.578125 Z M 90.945312 97.164062 L 82.585938 79.476562 L 83.457031 78.1875 L 91.878906 95.769531 Z M 73.171875 97.164062 L 72.238281 95.769531 L 79.910156 79.859375 L 80.78125 78.230469 L 81.636719 79.355469 Z M 102.230469 91.539062 L 102.976562 91.578125 L 94.433594 73.863281 L 95.613281 74.234375 L 95.023438 71.6875 L 97.558594 72.113281 L 96.636719 69.671875 L 99.203125 69.746094 L 97.964844 67.457031 L 100.515625 67.171875 L 98.980469 65.074219 L 101.472656 64.4375 L 99.667969 62.574219 L 102.050781 61.59375 L 100.015625 60 L 102.242188 58.699219 L 100.015625 57.398438 L 102.050781 55.804688 L 99.667969 54.824219 L 101.472656 52.964844 L 98.984375 52.324219 L 100.515625 50.230469 L 97.964844 49.941406 L 99.203125 47.65625 L 96.636719 47.726562 L 97.558594 45.285156 L 95.023438 45.710938 L 95.613281 43.167969 L 93.160156 43.9375 L 93.402344 41.332031 L 91.074219 42.433594 L 90.96875 39.824219 L 88.808594 41.238281 L 88.351562 38.667969 L 86.40625 40.371094 L 85.605469 37.886719 L 83.90625 39.84375 L 82.78125 37.492188 L 81.355469 39.667969 L 79.929688 37.492188 L 78.808594 39.84375 L 77.105469 37.886719 L 76.308594 40.371094 L 74.359375 38.667969 L 73.902344 41.238281 L 71.746094 39.824219 L 71.640625 42.433594 L 69.308594 41.332031 L 69.554688 43.933594 L 67.097656 43.164062 L 67.6875 45.707031 L 65.15625 45.285156 L 66.074219 47.726562 L 63.507812 47.652344 L 64.746094 49.941406 L 62.191406 50.226562 L 63.730469 52.324219 L 61.238281 52.964844 L 63.042969 54.824219 L 60.660156 55.804688 L 62.695312 57.398438 L 60.46875 58.699219 L 62.695312 60 L 60.660156 61.59375 L 63.042969 62.570312 L 61.238281 64.433594 L 63.730469 65.074219 L 62.191406 67.167969 L 64.746094 67.453125 L 63.507812 69.746094 L 66.074219 69.671875 L 65.152344 72.113281 L 67.6875 71.6875 L 67.097656 74.230469 L 69.554688 73.460938 L 69.476562 74.296875 L 61.144531 91.578125 L 61.890625 91.539062 L 69.363281 76.039062 L 71.441406 75.054688 L 63.539062 91.449219 L 63.230469 91.464844 L 69.144531 91.136719 L 73.59375 97.796875 L 82.058594 80.234375 L 90.523438 97.796875 L 94.976562 91.136719 L 100.886719 91.464844 L 100.582031 91.449219 L 93.09375 75.917969 L 93.402344 76.066406 L 93.15625 73.464844 L 93.578125 73.597656 L 102.230469 91.539062"/></g><path style="stroke:none;fill-rule:nonzero;fill:#231f20;fill-opacity:1" d="M 81.355469 44.421875 C 73.609375 44.421875 67.324219 50.8125 67.324219 58.699219 C 67.324219 66.585938 73.609375 72.976562 81.355469 72.976562 C 89.105469 72.976562 95.386719 66.585938 95.386719 58.699219 C 95.386719 50.8125 89.105469 44.421875 81.355469 44.421875"/><g clip-path="url(#clip2)" clip-rule="nonzero"><path style="stroke:none;fill-rule:nonzero;fill:#000;fill-opacity:1" d="M 83.058594 170.484375 L 88.214844 176.410156 L 88.398438 176.621094 L 116.222656 151.921875 L 110.882812 145.78125 L 89.046875 165.167969 L 81.429688 156.414062 L 75.441406 161.726562 Z M 83.058594 170.484375"/></g><g clip-path="url(#clip3)" clip-rule="nonzero"><path style="stroke:none;fill-rule:nonzero;fill:#000;fill-opacity:1" d="M 106.636719 180.578125 L 71.40625 180.578125 L 71.40625 144.980469 L 106.636719 144.980469 L 106.636719 145.996094 L 111.507812 141.679688 C 110.457031 140.09375 108.667969 139.046875 106.636719 139.046875 L 71.40625 139.046875 C 68.164062 139.046875 65.535156 141.703125 65.535156 144.980469 L 65.535156 180.578125 C 65.535156 183.851562 68.164062 186.507812 71.40625 186.507812 L 106.636719 186.507812 C 109.878906 186.507812 112.507812 183.851562 112.507812 180.578125 L 112.507812 158.730469 L 106.636719 163.941406 Z M 106.636719 180.578125"/></g><g clip-path="url(#clip4)" clip-rule="nonzero"><path style="stroke:none;fill-rule:nonzero;fill:#000;fill-opacity:1" d="M 83.058594 225.4375 L 88.214844 231.367188 L 88.398438 231.574219 L 116.222656 206.875 L 110.882812 200.738281 L 89.046875 220.125 L 81.429688 211.367188 L 75.441406 216.679688 Z M 83.058594 225.4375"/></g><g clip-path="url(#clip5)" clip-rule="nonzero"><path style="stroke:none;fill-rule:nonzero;fill:#000;fill-opacity:1" d="M 106.636719 235.53125 L 71.40625 235.53125 L 71.40625 199.933594 L 106.636719 199.933594 L 106.636719 200.949219 L 111.507812 196.632812 C 110.457031 195.046875 108.667969 194 106.636719 194 L 71.40625 194 C 68.164062 194 65.535156 196.660156 65.535156 199.933594 L 65.535156 235.53125 C 65.535156 238.804688 68.164062 241.464844 71.40625 241.464844 L 106.636719 241.464844 C 109.878906 241.464844 112.507812 238.804688 112.507812 235.53125 L 112.507812 213.683594 L 106.636719 218.894531 Z M 106.636719 235.53125"/></g><g clip-path="url(#clip6)" clip-rule="nonzero"><path style="stroke:none;fill-rule:nonzero;fill:#000;fill-opacity:1" d="M 83.058594 277.6875 L 88.214844 283.617188 L 88.398438 283.828125 L 116.222656 259.125 L 110.882812 252.988281 L 89.046875 272.375 L 81.429688 263.621094 L 75.441406 268.933594 Z M 83.058594 277.6875"/></g><g clip-path="url(#clip7)" clip-rule="nonzero"><path style="stroke:none;fill-rule:nonzero;fill:#000;fill-opacity:1" d="M 106.636719 287.78125 L 71.40625 287.78125 L 71.40625 252.1875 L 106.636719 252.1875 L 106.636719 253.203125 L 111.507812 248.886719 C 110.457031 247.300781 108.667969 246.253906 106.636719 246.253906 L 71.40625 246.253906 C 68.164062 246.253906 65.535156 248.910156 65.535156 252.1875 L 65.535156 287.78125 C 65.535156 291.058594 68.164062 293.714844 71.40625 293.714844 L 106.636719 293.714844 C 109.878906 293.714844 112.507812 291.058594 112.507812 287.78125 L 112.507812 265.933594 L 106.636719 271.148438 Z M 106.636719 287.78125"/></g></g></svg>