<?xml version="1.0" encoding="iso-8859-1"?>
<!-- Generator: Adobe Illustrator 19.0.0, SVG Export Plug-In . SVG Version: 6.00 Build 0)  -->
<svg version="1.1" id="Capa_1" xmlns="http://www.w3.org/2000/svg" xmlns:xlink="http://www.w3.org/1999/xlink" x="0px" y="0px"
	 viewBox="0 0 512 512" style="enable-background:new 0 0 512 512;" xml:space="preserve">
<g>
	<g>
		<g>
			<path d="M378.368,118.592c-3.435-1.856-7.68-1.664-10.944,0.533L320,150.741V128c0-5.888-4.779-10.667-10.667-10.667H160
				c-31.104,0-32,76.608-32,85.333S128.896,288,160,288h149.333c5.888,0,10.667-4.779,10.667-10.667v-22.741l47.424,31.616
				c1.771,1.195,3.84,1.792,5.909,1.792c1.728,0,3.456-0.427,5.035-1.259c3.456-1.856,5.632-5.461,5.632-9.408V128
				C384,124.053,381.845,120.448,378.368,118.592z M362.667,257.408l-47.424-31.616c-3.264-2.176-7.488-2.368-10.944-0.533
				c-3.456,1.856-5.632,5.461-5.632,9.408v32.021l-136.747,0.448c-4.245-3.051-12.587-25.792-12.587-64.469
				c0-38.677,8.341-61.419,10.667-64h138.667v32c0,3.947,2.155,7.552,5.632,9.408c3.456,1.856,7.68,1.643,10.944-0.533
				l47.424-31.616V257.408z"/>
			<path d="M437.333,10.667H74.667C33.493,10.667,0,44.16,0,85.333V320c0,41.173,33.493,74.667,74.667,74.667h32v96
				c0,4.139,2.389,7.915,6.144,9.664c1.429,0.661,2.987,1.003,4.523,1.003c2.453,0,4.885-0.853,6.827-2.475l125.035-104.192h188.139
				C478.507,394.667,512,361.173,512,320V85.333C512,44.16,478.507,10.667,437.333,10.667z M490.667,320
				c0,29.397-23.936,53.333-53.333,53.333h-192c-2.496,0-4.907,0.875-6.827,2.475L128,467.904V384
				c0-5.888-4.779-10.667-10.667-10.667H74.667c-29.397,0-53.333-23.936-53.333-53.333V85.333C21.333,55.936,45.269,32,74.667,32
				h362.667c29.397,0,53.333,23.936,53.333,53.333V320z"/>
		</g>
	</g>
</g>
<g>
</g>
<g>
</g>
<g>
</g>
<g>
</g>
<g>
</g>
<g>
</g>
<g>
</g>
<g>
</g>
<g>
</g>
<g>
</g>
<g>
</g>
<g>
</g>
<g>
</g>
<g>
</g>
<g>
</g>
</svg>
