<svg xmlns="http://www.w3.org/2000/svg" xmlns:xlink="http://www.w3.org/1999/xlink" width="48" height="48" viewBox="0 0 48 48"><g id="surface27697742"><path style="stroke:none;fill-rule:nonzero;fill:#3f51b5;fill-opacity:1" d="M 47.398438 40.898438 C 47.398438 44.492188 44.492188 47.398438 40.898438 47.398438 L 7.101562 47.398438 C 3.511719 47.398438 0.601562 44.492188 0.601562 40.898438 L 0.601562 7.101562 C 0.601562 3.507812 3.511719 0.601562 7.101562 0.601562 L 40.898438 0.601562 C 44.492188 0.601562 47.398438 3.507812 47.398438 7.101562 Z M 47.398438 40.898438"/><path style="stroke:none;fill-rule:nonzero;fill:#fff;fill-opacity:1" d="M 37.476562 25.300781 L 33.101562 25.300781 L 33.101562 42.199219 L 26.601562 42.199219 L 26.601562 25.300781 L 22.699219 25.300781 L 22.699219 20.101562 L 26.601562 20.101562 L 26.601562 16.96875 C 26.601562 12.40625 28.496094 9.699219 33.871094 9.699219 L 38.300781 9.699219 L 38.300781 14.898438 L 35.328125 14.898438 C 33.234375 14.898438 33.101562 15.679688 33.101562 17.140625 L 33.101562 20.101562 L 38.300781 20.101562 Z M 37.476562 25.300781"/></g></svg>